<!-- Generated by IcoMoon.io -->
<svg version="1.1" xmlns="http://www.w3.org/2000/svg" width="1536" height="1024" viewBox="0 0 1536 1024">
<title></title>
<g id="icomoon-ignore">
</g>
<path fill="#f80" d="M51.2 220.16c0-93.312 75.648-168.96 168.96-168.96h1095.68c93.312 0 168.96 75.648 168.96 168.96v583.68c0 93.312-75.648 168.96-168.96 168.96h-1095.68c-93.312 0-168.96-75.648-168.96-168.96v-583.68z"></path>
<path fill="#fff" d="M1116.826 680.269c0-22.052 18.068-39.926 40.361-39.926h40.064c22.287 0 40.361 17.874 40.361 39.926v124.257c0 22.047-18.074 39.926-40.361 39.926h-40.064c-22.292 0-40.361-17.879-40.361-39.926v-124.257zM1157.187 653.65c-14.863 0-26.911 11.919-26.911 26.619v124.257c0 14.7 12.047 26.614 26.911 26.614h40.064c14.858 0 26.906-11.914 26.906-26.614v-124.257c0-14.7-12.047-26.619-26.906-26.619h-40.064z"></path>
<path fill="#fff" d="M972.8 742.405c0-70.697 57.928-128 129.377-128 30.172 0 57.953 10.225 79.964 27.372l6.712 5.228-6.717 5.228c-26.977 21.007-44.283 53.591-44.283 90.173 0 36.577 17.306 69.151 44.288 90.168l6.707 5.228-6.707 5.228c-22.011 17.147-49.792 27.372-79.964 27.372-71.45 0-129.377-57.303-129.377-127.995zM1102.177 627.712c-64.020 0-115.922 51.348-115.922 114.693 0 63.34 51.901 114.688 115.922 114.688 24.064 0 46.403-7.25 64.927-19.666-26.209-23.419-42.701-57.318-42.701-95.022 0-37.709 16.486-71.613 42.701-95.027-18.524-12.416-40.863-19.666-64.927-19.666z"></path>
<path fill="#fff" d="M1188.091 647.373c26.209 23.414 42.701 57.318 42.701 95.022 0 37.709-16.492 71.613-42.701 95.027 18.519 12.416 40.863 19.666 64.927 19.666 64.020 0 115.922-51.348 115.922-114.693 0-63.34-51.901-114.688-115.922-114.688-24.064 0-46.408 7.25-64.927 19.666zM1173.053 641.772c22.006-17.147 49.792-27.372 79.964-27.372 71.45 0 129.377 57.303 129.377 127.995 0 70.697-57.928 128-129.377 128-30.172 0-57.958-10.225-79.964-27.372l-6.712-5.228 6.712-5.228c26.977-21.007 44.283-53.591 44.283-90.173 0-36.577-17.306-69.161-44.283-90.168l-6.712-5.228 6.712-5.228z"></path>
<path fill="#ce6b01" d="M1197.251 646.994h-40.069c-18.575 0-33.633 14.899-33.633 33.275v124.252c0 18.376 15.058 33.275 33.633 33.275h40.069c18.575 0 33.633-14.899 33.633-33.275v-124.252c0-18.376-15.058-33.275-33.633-33.275z"></path>
<path fill="#bc0717" d="M1131.126 742.395c0-38.707 18.324-73.185 46.853-95.401-20.864-16.251-47.196-25.943-75.802-25.943-67.738 0-122.655 54.328-122.655 121.344 0 67.021 54.917 121.344 122.655 121.344 28.605 0 54.938-9.692 75.802-25.943-28.529-22.226-46.853-56.694-46.853-95.401z"></path>
<path fill="#dfa100" d="M1375.677 742.395c0 67.021-54.917 121.344-122.65 121.344-28.611 0-54.938-9.692-75.802-25.943 28.529-22.216 46.848-56.694 46.848-95.401s-18.319-73.185-46.848-95.401c20.864-16.251 47.191-25.943 75.802-25.943 67.732 0 122.65 54.328 122.65 121.344z"></path>
</svg>
