<!-- Generated by IcoMoon.io -->
<svg version="1.1" xmlns="http://www.w3.org/2000/svg" width="1044" height="1024" viewBox="0 0 1044 1024">
<title></title>
<g id="icomoon-ignore">
</g>
<path fill="#e6e7f0" d="M492.757 367.503c0 0-1.928-0.685 7.813-10.985 2.055-2.035 3.431-4.641 3.95-7.474 0.525-2.826 0.16-5.745-1.031-8.372-3.511-4.901-24.037 13.884-26.757 16.091-10.38 7.554-19.609 16.557-27.402 26.73-14.835 22.954-40.608 80.284-51.486 80.53-20.673 0.446-85.418-81.661-85.418-81.661l-34.324 43.261c7.175 9.828 14.855 19.29 23 28.346 15.978 18.705 34.251 35.341 54.405 49.538 20.327 13.784 50.894 27.515 73.894 11.477 8.205-6.25 14.815-14.336 19.29-23.592 7.254-15.147 13.392-30.8 18.346-46.838 2.141-8.239 5.040-16.271 8.657-23.984 2.992-4.249 6.729-7.939 11.031-10.885 3.916-3.285 8.139-6.191 12.607-8.684 7.82-4.216 25.128-1.423 25.72-15.107 0.027-0.698-0.219-1.383-0.692-1.902-0.465-0.525-1.124-0.844-1.829-0.891-4.256-0.299-22.255 0.539-25.228-0.539z"></path>
<path fill="#e6e7f0" d="M114.635 672.861c-5.339 18-7.367 21.191-13.452 20.307-8.704-1.323-0.446-25.307-4.694-26.584-4.256-1.277-5.938 5.446-7.175 7.946-2.74 5.18-5.951 10.107-9.595 14.715-2.374 2.793-7.467 7.993-10.686 3.331-0.898-1.822-1.177-3.89-0.791-5.885 0.499-3.577 3.418-9.462 4.256-12.946 0.645-2.208 2.62-14.715-2.866-10.499-5.492 4.222-8.857 18.1-16.178 20.261-6.377 1.815-7.367-3.73-6.031-9.415 2.62-9.848 5.925-19.503 9.888-28.891 1.117-2.247 1.902-4.641 2.327-7.108-0.033-5.14-1.769-10.12-4.947-14.176-6.629-10.745-15.081-20.354-22.654-30.461-14.835-19.908-28.187-44.777-31.85-69.499-1.237-8.092 3.91-15.593 7.913-22.362 4.648-8.046 9.894-15.792 14.841-23.399 11.523-16.77 23.791-33.1 36.498-49.046l5.193-5.293 2.374-2.846c3.71-4.462 6.975-8.385 9.894-11.523 3.956 3.87 8.212 8.431 12.368 13.339 12.953 15.008 23.592 31.046 25.713 38.892l-1.383 1.769c-0.991 1.124-1.975 2.4-3.065 3.777-18.053 22.408-50.941 64.785-50.003 66.6 19.782 37.815 28.586 56.114 39.57 76.321 3.411 6.277 10.878 17.754 14.835 24.516 3.956 6.769 4.994 20.161-0.299 38.161z"></path>
<path fill="#e6e7f0" d="M219.242 646.184l-108.963 7.6 8.212 369.711 59.951 1.815 40.8-379.126z"></path>
<path fill="#e6e7f0" d="M338.452 653.591l-94.514 10.2 31.159 362.25 59.897-3.232 3.458-369.218z"></path>
<path fill="#e6e7f0" d="M178.449 1025.31l-59.951-1.815 0.1 4.315 59.352 1.769 0.499-4.269z"></path>
<path fill="#e6e7f0" d="M334.988 1022.81l-59.897 3.232 0.392 4.322 59.458-3.238 0.047-4.315z"></path>
<path fill="#e6e7f0" d="M101.19 780.374l4.256-109.322 120.579-9.176-6.377 115.752-118.458 2.746z"></path>
<path fill="#e6e7f0" d="M243.938 780.374l-10.293-94.221 115.147-10.692-0.346 103.291-104.508 1.622z"></path>
<path fill="#e6e7f0" d="M314.208 366.373c-46.738-22.654-103.87-31.485-155.010-14.369-20.181 6.722-69.24 23.1-106.682 64.984 0 0-8.757 37.968 20.673 32.961 0 0-4.056 25.653 25.919 21.63 0 0-1.044 26.145 29.922 18.1l24.729-26.385h148.972l8.212 13.585c0 0 24.729 8.092 31.704-13.585 0 0 21.318 8.092 25.919-16.091 4.568-0.472 8.804-2.6 11.889-5.971 3.085-3.378 4.801-7.766 4.827-12.321 0 0-31.95-43.553-71.075-62.537z"></path>
<path fill="#e6e7f0" d="M322.068 441.856c0 0 38.427 272.105 38.925 270.682 0.492-1.423-19.143 25.653-45.255 4.907 0 0-23.592 29.423-55.103 1.423 0 0-31.997 34.331-62.072 2.892 0 0-27.050 30.946-63.501-0.492 0 0-20.626 30.946-46.246-5.3l29.131-277.65 204.122 3.537z"></path>
<path fill="#e6e7f0" d="M117.959 306.342c0 0 41.007 30.607 108.418 30.308 34.863 0.785 69.306-7.68 99.76-24.523-1.184 0.685-10.978-19.616-11.477-20.992-11.424-27.761-8.405-59.246-20.62-86.907-15.925-36-72.066-43.36-102.287-21.484-13.698 9.808-21.91 25.553-27.994 40.807-6.476 16.238-8.903 35.069-17.854 50.123-7.075 12.215-15.779 24.722-27.947 32.668z"></path>
<path fill="#e6e7f0" d="M277.757 215.559c-4.635-5.167-10.313-9.309-16.67-12.162-8.505 15.546-33.233 52.769-74.486 63.122 0 8.185 0 16.431 0.246 24.523 0 13.292 1.090 40.116 1.636 53.507-3.019 0.638-5.885 1.13-9.003 1.862-2.879 4.98-3.697 10.872-2.274 16.431 5.293 15.353 26.212 18.838 40.953 18.838 10.779 0 28.539-3.923 34.078-13.884 2.081-3.112 3.378-6.676 3.77-10.386 0.399-3.717-0.113-7.474-1.496-10.945-2.374-0.492-7.022-1.33-10.486-1.669l0.645-29.43c6.264 1.097 12.64 1.456 18.991 1.077 6.403-0.359 12.487-2.906 17.215-7.208 5.938-7.095 9.402-15.905 9.888-25.108 0.692-6.516 1.037-13.066 1.037-19.622 0.352-17.069-2.174-35.754-14.043-48.946z"></path>
<path fill="#e6e7f0" d="M244.862 251.665c0.060-3.065-1.223-5.572-2.859-5.599-1.636-0.033-3.012 2.427-3.072 5.486s1.223 5.566 2.859 5.599c1.642 0.027 3.012-2.427 3.072-5.486z"></path>
<path fill="#e6e7f0" d="M274.452 250.767c0.060-3.065-1.223-5.566-2.859-5.599-1.642-0.033-3.012 2.427-3.072 5.486s1.223 5.566 2.859 5.599c1.642 0.027 3.012-2.427 3.072-5.486z"></path>
<path fill="#e6e7f0" d="M241.657 297.419c-3.677-1.337-6.915-3.657-9.349-6.709-2.44-3.045-3.976-6.696-4.448-10.559l32.203 7.115c0 0-1.982 12.454-7.474 12.261-3.724-0.213-7.401-0.924-10.932-2.108z"></path>
<path fill="#e6e7f0" d="M261.386 259.797c1.629 0.492 1.829 3.724 2.174 4.901 0.678 2.447 1.569 4.827 2.673 7.115 1.237 2.5 2.62 6.523-1.536 6.523-1.676-0.027-3.305-0.559-4.668-1.536-1.363-0.971-2.394-2.334-2.946-3.91-0.618-2.194-0.638-4.515-0.053-6.722 0.578-2.201 1.742-4.216 3.365-5.831 0.1-0.166 0.246-0.306 0.419-0.399 0.18-0.093 0.372-0.146 0.572-0.14z"></path>
<path fill="#e6e7f0" d="M186.574 201.329c14.456-9.947 17.248-30.76 6.237-46.499-11.005-15.739-31.651-20.433-46.107-10.486-14.456 9.941-17.248 30.76-6.237 46.499 11.005 15.732 31.651 20.433 46.107 10.486z"></path>
<path fill="#e6e7f0" d="M537.194 311.103l-57.637-4.488c-3.271-0.253-6.124 2.168-6.383 5.413l-9.176 115.878c-0.259 3.245 2.181 6.078 5.452 6.33l57.643 4.488c3.265 0.253 6.124-2.168 6.377-5.406l9.176-115.885c0.259-3.238-2.181-6.071-5.452-6.33z"></path>
<path fill="#e6e7f0" d="M536.144 318.151l-56.606-4.409-7.993 100.917 56.606 4.409 7.993-100.917z"></path>
<path fill="#e6e7f0" d="M499.094 431.702c2.646 0 4.794-2.128 4.794-4.754 0-2.633-2.148-4.761-4.794-4.761-2.653 0-4.801 2.128-4.801 4.761 0 2.626 2.148 4.754 4.801 4.754z"></path>
<path fill="#e6e7f0" d="M466.445 403.848c3.218-3.291 7.268-5.679 11.723-6.915 4.994-0.439 9.954-1.223 14.835-2.354 2.028-0.638 4.601-1.962 4.947-4.269 0.645-3.923-4.256-6.969-7.268-8.292-3.783-1.576-7.879-2.254-11.975-1.962-6.47 0.638-12.8 2.294-18.745 4.907z"></path>
<path fill="#eb7000" d="M374.086 568.021l95.412-41.352c4.655-2.021 6.776-7.394 4.741-12.009l-85.67-194.367c-2.035-4.615-7.461-6.722-12.108-4.701l-95.412 41.352c-4.655 2.015-6.776 7.394-4.741 12.009l85.67 194.367c2.035 4.608 7.461 6.716 12.108 4.701z"></path>
<path fill="#ac3229" d="M371.586 356.086c4.874 0 8.817-3.916 8.817-8.751s-3.943-8.751-8.817-8.751c-4.867 0-8.817 3.916-8.817 8.751s3.95 8.751 8.817 8.751z"></path>
<path fill="#aa693c" d="M690.661 466.612c0 0-121.77 186.98-165.516 190.018-10.686 0.738-24.523-15.387-39.943-37.489-32.043-53.328-52.39-131.072-52.39-131.072s-9.289-28.918-14.489-46.053c0 0-4.827-14.369-10.865-15.653 0 0-16.071 0-12.261 30.667 0 4.974 0.838 9.209 1.117 14.369s0.552 7.833 0.465 11.789c0 1.749-0.559 7.367-3.996 7.647s-3.624-2.58-5.572-10.958c-1.204-4.681-2.161-9.415-2.879-14.19-1.097-8.325-2.613-16.597-4.555-24.775-1.21-4.329-4.548-11.33-9.289-11.603-16.996-0.924-9.848 51.858-9.289 61.62 0 3.225 1.024 5.526-0.645 7.002-4.089 3.591-6.131-6.357-6.689-8.106l-9.289-30.308c-1.21-3.87-3.345-9.209-7.155-10.313-1.835-0.745-3.89-0.745-5.732-0.007-1.842 0.745-3.318 2.168-4.109 3.963-1.922 3.95-2.626 8.372-2.048 12.714 0.818 12.567 2.527 25.068 5.113 37.396 18.838 78.456 51.546 152.988 96.595 220.133 13.591 21.025 31.392 39.052 52.297 52.962 52.011 29.749 103.005-10.772 143.506-43.839 40.029-34.098 75.596-73.023 105.884-115.872 15.533-20.746 29.975-42.263 43.287-64.472l-81.554-85.57z"></path>
<path fill="#2e4255" d="M754.661 414.022c-75.417 51.3-138.486 103.437-138.486 103.437l51.918 64.472 86.568-167.909z"></path>
<path fill="#8a93ab" d="M1098.32 587.543c-47.004-175.742-135.241-201.342-209.175-211.848-50.256-7.181-104.681-6.629-182.146 88.516-61.772 75.809-253.766 412.18-43.846 638.211 0 0 228.684-24.775 405.903-70.091l-5.665-431.982z"></path>
<path fill="#2e4255" d="M972.926 692.37c48.261-13.378 99.049-15.18 148.148-5.246l-22.754-99.567c-46.998-175.742-135.241-201.349-209.175-211.848-23.359-3.152-47.077-2.494-70.217 1.935 0 0-29.816 6.909-70.038 40.249-40.222 33.346-80.158 101.323-80.158 101.323s79.692-98.836 174.432-75.257c0 0 75.982 34.357 98.277 252.376z"></path>
<path fill="#572900" d="M771.65 99.933c0 0 115.639-7.554 158.833 71.846 43.188 79.393-45.794 155.196-45.794 155.196l-174.067-67.238c0 0-21.637-31.864-24.15-55.263l-16.53 8.471c-2.075-14.283-0.213-28.858 5.379-42.19 5.585-13.325 14.708-24.908 26.385-33.519 23.958-17.887 53.713-26.411 83.596-23.944l-13.651-13.359z"></path>
<path fill="#aa693c" d="M814.944 471.585c-10.406 2.028-25.454 2.121-30.56-28.918-3.79-24.423-3.79-49.272 0-73.688l-52.204 5.253c-17.834 1.749-33.16-0.645-41.146-18.425-4.701-13.93-5.911-28.792-3.531-43.287 1.090-14.708 3.172-29.324 6.224-43.753 4.435-25.334 13.631-49.611 27.123-71.567 7.401-9.542 17.435-16.736 28.891-20.726 17.654 21.138 39.856 38.101 64.977 49.637 25.115 11.537 52.517 17.361 80.198 17.049 0.838 7.919 0.838 15.38 1.303 21.83 3.524 55.356-0.279 190.936-81.275 206.595z"></path>
<path fill="#11212d" d="M1032.97 709.605c49.325-4.162 88.729-14.243 88.024-22.501-0.711-8.265-41.273-11.583-90.597-7.414s-88.736 14.243-88.024 22.501c0.711 8.265 41.273 11.583 90.597 7.414z"></path>
<path fill="#aa693c" d="M906.233 1089.529l13.837-23.206c83.596-151.612 53.966-339.695 53.966-339.695l-9.289-44.212c0 0 74.306-30.946 127.249-15.746 0 0 11.616 108.591 6.596 152.895-18.578 159.99-57.125 215.067-103.471 280.377-3.252 4.601-14.954 16.849-14.954 16.849z"></path>
<path fill="#2e4255" d="M1098.333 587.55l22.847 99.567c-59.798-12.035-121.823-6.796-178.708 15.101l-15.699-102.054z"></path>
<path fill="#683614" d="M796.14 252.702c0.199-5.998-2.208-10.951-5.386-11.058-3.178-0.1-5.918 4.674-6.117 10.672-0.206 6.004 2.208 10.951 5.379 11.058 3.178 0.106 5.918-4.674 6.124-10.672z"></path>
<path fill="#683614" d="M738.178 247.901c0.206-5.998-2.208-10.945-5.386-11.051-3.172-0.106-5.918 4.674-6.117 10.672-0.206 5.998 2.208 10.945 5.386 11.051s5.918-4.668 6.117-10.672z"></path>
<path fill="#fff" d="M788.015 344.017c7.62-2.334 14.442-6.709 19.722-12.64 5.273-5.931 8.804-13.192 10.187-20.985l-66.507 11.151c0 0 2.6 25.7 13.93 25.793 7.673-0.113 15.294-1.23 22.668-3.318z"></path>
<path fill="#7f4612" d="M751.496 266.559c-3.252 0.731-4.089 7.088-4.927 9.668-1.496 4.768-3.491 9.369-5.945 13.724-2.6 4.788-5.758 12.527 2.414 12.986 3.358 0.080 6.656-0.891 9.422-2.779 2.773-1.882 4.867-4.581 5.998-7.72 1.456-4.236 1.755-8.777 0.858-13.166s-2.959-8.458-5.964-11.796c-0.745-0.831-1.396-1.011-1.855-0.918z"></path>
<path fill="#fff" d="M593.687 221.044c23.213-41.592 9.103-115.858-46.944-144.863-83.622-42.868-147.815-30.806-172.025 11.869-35.587 62.577-5.825 119.968 40.774 153.128-2.859 12.487-4.621 25.221-5.28 38.054 1.569 12.394 17.441 2.52 19.828 0.625 6.058-4.701 13.691-11.703 22.215-19.316l0.412 0.233c88.164 33.26 120.406-2.72 141.019-39.73z"></path>
<path fill="#20c05d" d="M477.543 233.824c42.529 4.182 80.391-26.897 84.573-69.426 4.189-42.523-26.897-80.391-69.419-84.573s-80.391 26.897-84.573 69.419c-4.182 42.529 26.897 80.391 69.419 84.58z"></path>
<path fill="#fff" d="M529.521 125.553l-84.167-3.278c-1.689-0.066-3.119 1.25-3.185 2.939l-2.314 59.518c-0.066 1.689 1.25 3.119 2.939 3.185l84.174 3.271c1.689 0.066 3.112-1.25 3.178-2.939l2.321-59.518c0.066-1.689-1.257-3.119-2.946-3.178zM524.142 184.952l-78.043-3.039 2.075-53.401 78.050 3.045-2.081 53.394z"></path>
<path fill="#fff" d="M455.64 143.247l28.685 19.257c0.479 0.319 1.031 0.499 1.589 0.519s1.117-0.106 1.622-0.392l30.102-16.969c1.476-0.831 1.995-2.7 1.164-4.169-0.831-1.476-2.7-1.995-4.176-1.164l-28.453 16.032-27.123-18.199c-1.403-0.944-3.305-0.572-4.249 0.838-0.944 1.403-0.572 3.305 0.838 4.249z"></path>
</svg>
