<!-- Generated by IcoMoon.io -->
<svg version="1.1" xmlns="http://www.w3.org/2000/svg" width="1083" height="1024" viewBox="0 0 1083 1024">
<title></title>
<g id="icomoon-ignore">
</g>
<path fill="#f5f6fa" d="M657.781 409.683c0 0 188.262 165.243 241.77 308.976 145.257 390.215-786.848 209.219-873.794 73.051s63.537-336.637 193.954-552.236c130.417-215.599 438.070 170.21 438.070 170.21z"></path>
<path fill="#e6e7f0" d="M965.8 379.089c52.182-47.83 68.096-158.038 3.886-223.689-96.063-97.342-191.038-109.391-245.291-60.411-79.341 71.5-65.11 165.391-15.908 232.479-9.835 16.163-18.252 33.151-25.158 50.773-3.758 18.060 23.053 11.417 26.898 10.175 10.749-3.907 24.661-10.307 40.080-17l0.442 0.49c106.64 85.58 168.684 49.674 215.049 7.183z"></path>
<path fill="#eb7000" d="M839.337 341.857c19.908 0 39.364-5.899 55.925-16.951 16.552-11.052 29.461-26.762 37.099-45.147 7.63-18.385 9.644-38.619 5.783-58.147-3.853-19.529-13.413-37.476-27.463-51.576s-31.971-23.719-51.485-27.644c-19.515-3.925-39.756-1.979-58.167 5.592s-34.164 20.427-45.273 36.946c-11.108 16.518-17.073 35.958-17.14 55.864-0.045 13.256 2.527 26.39 7.568 38.649s12.453 23.403 21.811 32.792c9.357 9.389 20.476 16.839 32.718 21.922s25.368 7.699 38.623 7.699z"></path>
<path fill="#ff7b00" d="M265.416 221.244c-1.56 3.163-2.58 6.565-3.017 10.062-2.937 17.447 7.341 77.822 12.398 88.696 1.387 2.84-16.313 27.916-23.573 43.74-9.25 21.496-16.167 43.911-20.636 66.867-11.827 52.909-9.87 107.036-11.338 160.432-1.713 61.835-8.157 100.381-5.791 181.774 1.877 54.776 21.371 147.122 44.128 177.473 5.881 9.72 13.545 18.256 22.593 25.155 3.671 2.359 6.689 5.766 10.441 8.116 0.787 0.478 1.664 0.781 2.576 0.906s1.839 0.067 2.726-0.176c7.422-2.191 12.969-27.673 15.498-33.599 11.059-22.31 20.491-45.392 28.222-69.053 0 0 85.807 17.039 157.096 1.133 0 0 4.894 53.315 24.47 84.883 0 0 4.813 17.693 9.462 19.229 11.582 3.978 24.469-9.736 28.956-18.012 43.801-74.089 79.119-209.446 78.711-284.022 0-90.157 3.508-183.884-10.766-272.987-3.299-26.358-10.645-52.057-21.778-76.199-0.797-1.924-1.079-4.021-0.816-6.086 0.392-2.224 1.164-4.365 2.284-6.329 13.867-27.834 27.978-73.035 28.386-94.864 0.734-39.683-98.369 27.51-110.522 36.841l-2.040 1.705c-47.609-13.894-98.103-14.762-146.167-2.516-4.893 1.298-21.696-9.17-26.672-11.199-9.462-4.057-73.899-39.357-80.098-36.679-2.065 0.995-3.731 2.653-4.731 4.707z"></path>
<path fill="#ae3124" d="M531.569 351.731c0.784 2.733 0.453 5.664-0.922 8.155s-3.681 4.344-6.419 5.154c-4.242 0.568-7.505-4.788-8.157-12.092s0.734-13.309 4.976-13.877c4.241-0.568 9.461 5.356 10.522 12.66z"></path>
<path fill="#ae3124" d="M400.899 354.407c-0.539 2.739 0.010 5.579 1.531 7.925s3.895 4.013 6.626 4.653c4.241 0.487 7.341-5.031 8.157-12.335s-1.142-13.309-5.465-13.715c-4.323-0.405-9.87 6.168-10.849 13.471z"></path>
<path fill="#ff7b00" d="M299.595 589.334c0 0 12.235 92.835-64.192 137.954-7.014 4.139-9.788 13.147-17.863 15.175-2.625 0.896-5.473 0.912-8.109 0.048s-4.916-2.563-6.491-4.835c-1.076-2.734-1.386-5.707-0.897-8.602 2.974-18.867 2.477-38.115-1.468-56.804-15.565-62.191-6.819-127.942 24.469-183.965z"></path>
<path fill="#e56005" d="M237.442 716.177c-0.576 0.016-1.147-0.1-1.671-0.339s-0.984-0.595-1.347-1.040c-0.354-0.397-0.625-0.86-0.797-1.362s-0.24-1.034-0.202-1.564c0.038-0.53 0.182-1.046 0.424-1.519s0.577-0.893 0.984-1.236c31.142-28.838 52.589-66.527 61.42-107.933 0.184-1.076 0.79-2.035 1.685-2.667s2.005-0.884 3.087-0.701c1.081 0.183 2.045 0.786 2.681 1.676s0.888 1.995 0.704 3.071c-8.967 43.326-31.428 82.74-64.193 112.64-0.771 0.656-1.759 1.004-2.773 0.974z"></path>
<path fill="#ae3124" d="M198.453 722.099c-0.734 8.683-1.387 17.447-2.121 26.131 0.011 0.673 0.178 1.335 0.488 1.934s0.754 1.119 1.298 1.519c0.545 0.4 1.174 0.671 1.841 0.789s1.351 0.084 2.001-0.103l16.884-5.924v8.115c0.055 0.933 0.407 1.823 1.006 2.542s1.413 1.229 2.322 1.455c0.911 0.227 1.87 0.158 2.739-0.196s1.601-0.974 2.089-1.772c8.261-13.449 13.026-28.732 13.867-44.472 0-4.219-4.731-5.112-7.341-2.921-8.973-4.301-24.47-10.631-31.567-3.327-3.996 4.301-3.099 11.28-3.507 16.23z"></path>
<path fill="#ae3124" d="M520.639 985.835c0.897 8.679 1.876 17.366 2.773 26.045 0.145 0.655 0.436 1.267 0.85 1.796s0.943 0.957 1.546 1.251c0.603 0.294 1.265 0.453 1.937 0.462s1.338-0.134 1.947-0.42l15.498-9.006c0.571 2.753 1.060 5.514 1.632 8.108 0.279 0.831 0.8 1.561 1.497 2.090 0.697 0.537 1.539 0.848 2.416 0.898s1.749-0.159 2.505-0.604c0.756-0.445 1.361-1.1 1.737-1.897 5.681-14.722 7.532-30.628 5.384-46.256-0.138-0.831-0.531-1.603-1.126-2.207-0.594-0.613-1.361-1.016-2.196-1.175s-1.701-0.067-2.478 0.285c-0.777 0.344-1.429 0.915-1.868 1.637-9.625-2.678-26.183-6.001-31.729 2.434-2.773 4.793-0.897 11.524-0.327 16.56z"></path>
<path fill="#ae3124" d="M306.364 965.548c-5.629-8.116-22.105-4.868-31.648-2.191-2.202-2.602-7.259-2.602-7.749 1.62-1.97 15.629 0.021 31.509 5.791 46.172 0.41 0.764 1.029 1.385 1.785 1.796s1.617 0.604 2.478 0.546c0.86-0.059 1.686-0.369 2.377-0.881 0.69-0.52 1.217-1.217 1.517-2.023l1.468-8.116 15.579 8.847c0.607 0.302 1.276 0.453 1.953 0.453s1.346-0.151 1.954-0.453c0.608-0.294 1.138-0.73 1.55-1.267s0.693-1.158 0.823-1.821c0.816-8.679 1.713-17.442 2.528-26.129 0.816-5.112 2.692-11.843-0.407-16.552z"></path>
<path fill="#ff7b00" d="M631.244 507.86c15.823 36.437 34.013 79.364 39.886 98.84 28.466 94.62 38.826 114.745 29.119 101.68-1.142-1.542-3.181 2.11-4.568 3.49-8.157 8.115-72.675-25.644-81.567-31.243-17.047-10.55-21.452-17.447-30.017-35.3z"></path>
<path fill="#ae3124" d="M671.047 716.338l16.313 20.937c0.454 0.492 1.015 0.875 1.64 1.118s1.298 0.341 1.967 0.286c0.669-0.055 1.316-0.261 1.893-0.603s1.067-0.81 1.434-1.37l8.646-15.662 5.629 6.249c0.659 0.687 1.525 1.143 2.468 1.298s1.91 0.002 2.756-0.438c0.847-0.44 1.528-1.142 1.939-1.999s0.53-1.825 0.341-2.756c-2.756-15.5-9.375-30.064-19.25-42.362-2.61-3.327-6.933-0.73-7.422 2.597-9.543 2.678-25.449 8.115-25.857 18.341-0.652 5.518 4.16 10.306 7.504 14.364z"></path>
<path fill="#e56005" d="M638.42 696.782c-0.542 0-1.079-0.107-1.58-0.316s-0.953-0.515-1.333-0.901c-0.38-0.385-0.678-0.842-0.879-1.344s-0.297-1.038-0.286-1.578c0 0 0.489-38.223-3.181-76.77-0.056-0.53-0.005-1.064 0.15-1.573s0.411-0.982 0.754-1.391c0.342-0.408 0.764-0.744 1.239-0.988s0.995-0.39 1.528-0.431c1.078-0.091 2.15 0.239 2.987 0.921s1.375 1.662 1.498 2.731c3.67 38.953 3.181 77.257 3.181 77.663 0.001 0.53-0.106 1.053-0.311 1.541s-0.508 0.93-0.887 1.3c-0.38 0.37-0.83 0.661-1.324 0.857s-1.023 0.29-1.555 0.279z"></path>
<path fill="#fff" d="M400.653 481.651c-0.577-0.597-0.937-1.366-1.026-2.189s0.1-1.651 0.536-2.356c1.188-2.040 2.787-3.812 4.695-5.209s4.087-2.385 6.397-2.906c1.583-0.534 3.293-0.571 4.897-0.107s3.028 1.408 4.076 2.704c0.68 1.326 0.904 2.838 0.639 4.303s-1.006 2.804-2.107 3.811c-0.946 0.951-2.103 1.666-3.378 2.089s-2.633 0.541-3.963 0.346c-1.669-0.285-3.209-1.079-4.404-2.272-0.024 0.161-0.024 0.325 0 0.487-0.513 0.866-1.342 1.502-2.315 1.775s-2.014 0.159-2.906-0.315l-1.142-0.162z"></path>
<path fill="#4b4e5c" d="M637.853 389.013c0.101 7.674 0.189 14.072-1.824 20.253-1.181 3.542-2.651 4.811-6.41 4.634-6.376-0.301-12.568-1.848-18.818-2.999-7.196-1.322-14.362-2.863-21.564-4.173-7-1.293-14.083-2.474-21.125-3.548-7.26-1.092-14.551-1.965-21.841-2.951-6.298-0.862-12.561-2.019-18.889-2.585-6.44-0.59-12.85-1.405-19.291-1.995-10.625-0.98-21.266-1.883-31.922-2.709-4.404-0.337-8.854-0.236-13.252-0.473-24.255-1.298-48.528-0.844-72.794-0.874-13.269 0-26.562-0.153-39.803 0.467s-26.562 1.293-39.897 1.865c-8.376 0.36-16.782 1.033-25.152 2.001-5.678 0.656-11.54-0.366-17.319-0.549-4.314-0.141-8.635-0.277-12.814 1.181-2.987 1.057-5.195 3.158-5.985 6.056-2.438 8.949-8.665 13.529-17.254 15.082-14.231 2.579-27.985 1.316-41.018-5.767-7.119-3.879-14.167-7.939-21.251-11.805-2.762-1.5-1.476-4.009-1.452-6.057 0-1.93 1.936-1.298 3.040-1.251 11.681 0.508 22.159-3.052 31.875-9.226 2.579-1.635 5.454-2.632 8.311-3.648 3.901-1.387 7.774-0.36 11.587 0.401 2.119 0.39 4.273 0.564 6.428 0.52 0.72 0 1.712 0.189 1.942-0.868s-0.619-1.511-1.405-1.966c-3.087-1.806-6.611-2.39-9.946-3.477-9.408-3.069-14.402-10.153-17.248-18.966-1.582-4.917-1.558-10.206-1.977-15.347-0.295-3.655-1.771-6.948-3.175-10.277-1.004-2.432-2.244-4.811-2.226-7.532 0-3.601 2.361-5.059 5.65-3.618 2.612 1.171 4.929 2.913 6.776 5.1 6.162 7.149 13.954 11.281 22.991 13.216 13.069 2.775 23.434 9.539 31.285 20.289 0.779 1.011 1.61 1.98 2.491 2.904 5.2 5.779 7.083 6.174 14.391 3.335 9.103-3.542 17.862-7.91 27.153-11.073 15.076-5.139 30.268-9.895 45.576-14.267 13.891-3.967 27.879-7.538 41.963-10.713 11.345-2.55 22.738-4.882 34.177-6.995 9.804-1.806 19.621-3.541 29.461-5.047 8.010-1.234 16.073-2.243 24.119-3.27 9.226-1.18 18.458-2.361 27.702-3.163 14.916-1.329 29.845-3.105 44.908-2.775 7.556 0.165 15.135-0.312 22.678 0.077 16.073 0.832 28.706 8.594 38.811 20.66 7.305 8.848 13.071 18.861 17.059 29.62 2.375 6.387 3.89 13.064 4.504 19.85 0.454 4.599 0.643 9.179 0.773 12.455zM633.886 391.427c0.191-5.494-0.327-10.989-1.54-16.35-4.020-17.372-11.776-32.996-22.785-46.992-4.486-5.697-9.616-10.666-17.029-12.396-7.285-1.581-14.706-2.442-22.16-2.568-7.928-0.23-15.837-0.974-23.811-0.272-7.715 0.685-15.507 0.484-23.252 0.856-5.384 0.266-10.76 0.75-16.12 1.298-9.651 0.986-19.308 1.889-28.924 3.223-9.114 1.263-18.239 2.45-27.3 4.061-7.621 1.352-15.23 2.734-22.815 4.245-8.452 1.682-16.893 3.435-25.299 5.312-10.997 2.468-21.953 5.136-32.943 7.632-16.7 3.837-33.469 7.521-49.796 12.869-9.722 3.181-18.942 7.59-28.369 11.51-7.704 3.2-15.577 6.021-22.874 10.117-1.18 0.679-3.648 1.287-2.85 3.022 0.59 1.209 2.869 0.454 4.368 0.059 8.907-2.361 17.791-4.829 26.715-7.083 10.732-2.745 21.634-4.722 32.548-6.558 10.53-1.771 21.173-2.769 31.686-4.722 5.773-1.057 11.647-1.806 17.578-1.346 1.134 0.089 2.409 0.284 2.491 1.541 0.077 1.086-1.322 1.003-2.072 1.18-10.472 2.592-21.126 4.233-31.763 5.979-11.693 1.919-23.445 3.489-35.092 5.661-10.583 1.977-21.026 4.68-31.402 7.59-6.423 1.8-12.933 3.365-18.925 6.429-1.18 0.59-2.745 1.18-2.532 2.875s1.995 1.641 3.211 2.101c0.667 0.165 1.35 0.259 2.036 0.278 4.587 0.656 9.156 0.354 13.777 0.13 11.953-0.591 23.9-1.269 35.854-1.812 16.167-0.738 32.329-1.689 48.496-2.308 13.63-0.52 27.271-0.833 40.907-1.181 15.713-0.425 31.444-0.147 47.145 0.591 5.1 0.236 10.211 0.236 15.3 0.59 12.218 0.886 24.438 1.8 36.638 2.869 10.147 0.886 20.323 1.711 30.405 3.111 10.283 1.434 20.583 2.721 30.848 4.315 12.881 2.001 25.749 3.967 38.475 6.83 8.405 1.889 16.77 3.954 25.482 4.131 3.181 0.065 4.391-1.452 4.999-4.131 0.85-3.826 0.644-7.662 0.691-12.686zM244.391 366.636c2.361 0.366 4.504-0.307 6.641-1.080 4.876-1.771 6.162-7.019 2.686-10.938-1.77-1.961-3.855-3.613-6.168-4.888-7.674-4.327-16.009-6.983-24.285-9.734-5.566-1.853-10.743-4.214-14.509-8.995-1.539-1.794-3.374-3.31-5.425-4.486-0.495-0.313-1.104-0.644-1.659-0.284s-0.337 1.033-0.082 1.576c2.101 4.51 1.966 9.32 2.13 14.166 0.219 6.493 0.992 12.898 4.959 18.464 5.979 8.383 13.476 13.919 24.325 13.441 1.181-0.054 2.562-0.077 2.892-1.488 0.378-1.635-1.121-1.77-2.19-2.184-6.71-2.851-12.69-7.179-17.496-12.662-1.375-1.528-3.27-3.978-1.038-5.608 1.842-1.345 3.187 1.317 4.504 2.651 2.809 2.834 4.586 6.741 8.458 8.471 5.139 2.228 10.657 3.451 16.256 3.601v-0.024zM220.827 413.404c2.499 0.099 4.999-0.145 7.432-0.726 6.127-1.352 12.018-3.146 15.247-9.327 0.732-1.398 1.329-2.827 0.36-4.131-1.044-1.393-2.673-1.305-4.327-0.963-3.724 0.773-6.965 2.592-10.229 4.416-5.076 2.839-10.472 3.777-16.192 2.432-0.933-0.218-2.278-0.23-2.307-1.405-0.036-1.363 1.392-1.334 2.402-1.659 4.675-1.505 9.657-1.729 14.273-3.465 2.296-0.862 4.362-2.155 4.94-4.634 1.181-4.964-4.882-11.722-9.911-11.138-4.778 0.513-9.464 1.68-13.925 3.471-8.653 3.542-16.699 8.889-26.486 9.185-0.491 0.050-0.969 0.188-1.411 0.407-0.802 0.348-1.717 0.656-1.824 1.711s0.667 1.612 1.429 2.049c2.627 1.528 5.312 2.981 7.928 4.492 9.775 5.631 20.122 9.261 32.601 9.285zM258.936 366.772c-6.016 0-17.449 6.251-20.56 11.287-2.060 3.341-3.707 6.93-1.511 10.76 3.087 5.378 12.325 6.593 16.882 2.402 0.697-0.643 1.393-1.139 0.697-2.443-1.275-2.39-0.591-4.451 2.089-5.283 2.999-0.927 3.288-2.787 3.217-5.36-0.059-2.102-0.142-4.344 2.184-5.649 1.423-0.803 3.305-1.688 2.704-3.66-0.549-1.8-2.568-1.866-4.232-2.049-0.49-0.023-0.98-0.018-1.47 0.012v-0.018z"></path>
<path fill="#8c91a9" d="M633.89 391.43c-0.048 5.023 0.159 8.853-0.691 12.643-0.591 2.692-1.818 4.209-5 4.132-8.712-0.165-17.076-2.231-25.482-4.132-12.726-2.862-25.594-4.828-38.474-6.829-10.265-1.594-20.566-2.881-30.848-4.315-10.081-1.399-20.258-2.225-30.405-3.111-12.201-1.068-24.42-1.983-36.638-2.869-5.088-0.366-10.2-0.366-15.3-0.59-15.701-0.714-31.432-0.992-47.145-0.591-13.635 0.366-27.277 0.679-40.906 1.181-16.168 0.59-32.33 1.57-48.497 2.308-11.953 0.543-23.9 1.239-35.853 1.812-4.622 0.224-9.191 0.525-13.777-0.13-0.687-0.019-1.37-0.112-2.037-0.278-1.215-0.46-2.986-0.342-3.21-2.101s1.334-2.261 2.532-2.875c5.991-3.064 12.502-4.628 18.924-6.429 10.378-2.91 20.819-5.614 31.403-7.591 11.646-2.172 23.398-3.742 35.092-5.661 10.624-1.771 21.291-3.388 31.762-5.979 0.75-0.189 2.149-0.107 2.072-1.18-0.083-1.257-1.358-1.453-2.491-1.541-5.932-0.461-11.805 0.29-17.578 1.345-10.513 1.925-21.156 2.952-31.686 4.723-10.915 1.83-21.841 3.813-32.548 6.558-8.926 2.284-17.809 4.722-26.716 7.083-1.499 0.395-3.807 1.18-4.368-0.059-0.797-1.736 1.647-2.361 2.851-3.022 7.296-4.097 15.17-6.918 22.873-10.117 9.444-3.92 18.647-8.329 28.369-11.511 16.327-5.347 33.056-9.031 49.796-12.839 10.991-2.496 21.946-5.164 32.943-7.632 8.405-1.889 16.846-3.642 25.3-5.312 7.585-1.511 15.194-2.892 22.814-4.245 9.061-1.611 18.186-2.798 27.301-4.061 9.616-1.334 19.272-2.237 28.924-3.223 5.359-0.549 10.737-1.032 16.12-1.298 7.744-0.372 15.535-0.171 23.251-0.856 7.975-0.703 15.885 0.042 23.812 0.272 7.453 0.138 14.876 1.010 22.159 2.603 7.414 1.712 12.543 6.682 17.029 12.396 11.009 13.995 18.765 29.62 22.785 46.992 1.212 5.354 1.73 10.842 1.541 16.328z"></path>
<path fill="#8c91a9" d="M244.392 366.659c-5.599-0.15-11.117-1.372-16.256-3.6-3.872-1.73-5.649-5.638-8.458-8.471-1.317-1.335-2.662-3.996-4.504-2.651-2.231 1.629-0.337 4.079 1.039 5.608 4.808 5.473 10.788 9.793 17.495 12.638 1.068 0.442 2.568 0.549 2.19 2.184-0.33 1.411-1.7 1.434-2.892 1.487-10.849 0.478-18.346-5.059-24.325-13.44-3.967-5.567-4.722-11.965-4.958-18.464-0.165-4.823 0-9.633-2.131-14.166-0.254-0.543-0.543-1.181 0.082-1.576s1.181 0 1.659 0.284c2.051 1.175 3.885 2.693 5.425 4.485 3.766 4.805 8.943 7.166 14.51 9.020 8.275 2.751 16.61 5.407 24.284 9.734 2.317 1.291 4.402 2.96 6.168 4.94 3.477 3.92 2.19 9.179-2.686 10.938-2.137 0.744-4.297 1.416-6.641 1.050z"></path>
<path fill="#8c91a9" d="M220.828 413.403c-12.479 0-22.826-3.654-32.589-9.285-2.633-1.512-5.313-2.952-7.928-4.492-0.761-0.437-1.535-0.998-1.429-2.048s1.021-1.364 1.824-1.712c0.442-0.219 0.92-0.357 1.411-0.407 9.787-0.295 17.832-5.649 26.486-9.185 4.458-1.785 9.139-2.949 13.913-3.459 5.029-0.59 11.068 6.174 9.911 11.139-0.59 2.479-2.645 3.771-4.94 4.633-4.616 1.736-9.598 1.96-14.273 3.465-1.010 0.325-2.438 0.295-2.403 1.659 0 1.181 1.376 1.181 2.308 1.405 5.72 1.346 11.115 0.407 16.192-2.432 3.264-1.824 6.493-3.642 10.229-4.416 1.653-0.342 3.282-0.431 4.327 0.963 0.968 1.293 0.372 2.721-0.36 4.132-3.229 6.18-9.119 7.975-15.247 9.326-2.433 0.577-4.934 0.818-7.432 0.714z"></path>
<path fill="#8c91a9" d="M258.938 366.79c0.489-0.026 0.98-0.026 1.47 0 1.664 0.183 3.683 0.248 4.232 2.049 0.59 1.972-1.281 2.856-2.704 3.66-2.326 1.304-2.243 3.541-2.184 5.649 0.071 2.573-0.218 4.433-3.217 5.36-2.704 0.832-3.364 2.892-2.089 5.283 0.697 1.304 0 1.8-0.697 2.443-4.557 4.192-13.795 2.952-16.882-2.402-2.197-3.831-0.549-7.42 1.511-10.76 3.111-5.029 14.544-11.275 20.56-11.281z"></path>
<path fill="#ff4e00" d="M477.737 370.801c36.378-0.731 65.905 9.981 66.068 42.686s-29.119 59.81-65.253 60.54c-36.134 0.73-65.987-25.238-66.15-58.024s29.037-44.472 65.335-45.202z"></path>
<path fill="#cc4108" d="M503.099 413.731c0.85-0.090 1.708 0.052 2.484 0.41s1.439 0.917 1.921 1.619c0.562 0.382 1.035 0.88 1.387 1.46 1.876 2.922-1.142 6.817-2.855 9.089-0.326 0.468-0.778 0.833-1.305 1.054s-1.106 0.29-1.67 0.196c-0.564-0.094-1.090-0.345-1.516-0.724s-0.735-0.871-0.891-1.419c-0.853-3.356-0.853-6.869 0-10.225 0.221-0.453 0.571-0.833 1.005-1.093s0.936-0.387 1.442-0.368z"></path>
<path fill="#cc4108" d="M451.798 420.953c-0.123-0.807-0.123-1.627 0-2.435 0.177-0.971 0.588-1.884 1.199-2.662s1.403-1.395 2.307-1.8h0.489c1.387-0.974 3.834-1.136 4.65 0.73 1.353 2.133 2.035 4.62 1.957 7.141-0.279 0.986-0.813 1.882-1.55 2.597 0.118 0.518 0.062 1.060-0.159 1.544s-0.595 0.882-1.064 1.135c-0.494 0.308-1.052 0.502-1.632 0.568-0.511 0.468-1.181 0.727-1.876 0.727s-1.364-0.259-1.876-0.727c-0.557-0.206-1.068-0.52-1.502-0.925s-0.783-0.89-1.027-1.429c-0.31-0.707-0.462-1.471-0.448-2.241s0.195-1.528 0.53-2.223z"></path>
<path fill="#fff" d="M816.954 197.899c0-3.090 2.505-5.596 5.596-5.596s5.595 2.505 5.595 5.596v89.53c0 3.090-2.505 5.595-5.595 5.595s-5.596-2.505-5.596-5.595v-89.53zM833.741 214.686c0-3.090 2.505-5.596 5.596-5.596 3.088 0 5.598 2.505 5.598 5.596v72.743c0 3.090-2.51 5.595-5.598 5.595-3.090 0-5.596-2.505-5.596-5.595v-72.743zM783.38 225.877c0-3.090 2.505-5.595 5.596-5.595s5.595 2.505 5.595 5.595v61.552c0 3.090-2.505 5.595-5.595 5.595s-5.596-2.505-5.596-5.595v-61.552zM872.91 214.686c-3.089 0-5.598 2.505-5.598 5.596v67.148c0 3.090 2.51 5.595 5.598 5.595s5.598-2.505 5.598-5.595v-67.148c0-3.090-2.51-5.596-5.598-5.596zM800.167 231.473c0-3.090 2.505-5.596 5.596-5.596s5.595 2.505 5.595 5.596v55.957c0 3.090-2.505 5.595-5.595 5.595s-5.596-2.505-5.596-5.595v-55.957zM856.123 225.877c-3.089 0-5.598 2.505-5.598 5.596v55.957c0 3.090 2.51 5.595 5.598 5.595s5.598-2.505 5.598-5.595v-55.957c0-3.090-2.51-5.596-5.598-5.596zM889.697 197.899c-3.089 0-5.598 2.505-5.598 5.596v83.934c0 3.090 2.51 5.595 5.598 5.595s5.598-2.505 5.598-5.595v-83.934c0-3.090-2.51-5.596-5.598-5.596z"></path>
</svg>
