<!-- Generated by IcoMoon.io -->
<svg version="1.1" xmlns="http://www.w3.org/2000/svg" width="3486" height="1024" viewBox="0 0 3486 1024">
<title></title>
<g id="icomoon-ignore">
</g>
<path fill="#4b4e5c" d="M1374.452 471.65l148.066-77.483c1.463-34.67-40.667-56.174-95.671-52.395-61.147 4.242-97.865 34.328-97.865 141.507 0 105.423 49.591 141.458 123.392 141.458 66.779 0 130.682-10.898 164.401-21.699l3.023-0.975 40.765 128.024-3.072 1c-56.783 18.213-129.634 28.233-205.117 28.233-176.908 0-266.581-90.77-266.581-269.775v-12.507c0-176.518 83.358-269.824 241.054-269.824s241.054 88.283 241.054 264.802l-233.667 115.931-59.782-116.297zM1133.641 597.626l3.267-1.585 54.76 119.101-2.462 1.268c-69.9 35.328-114.639 47.153-168.326 47.153-130.974 0-201.216-75.166-201.216-207.409v-481.694l139.093-74.459v219.697h173.544v134.583h-173.544v202.923c0 45.397 21.431 63.195 62.805 68.559 47.884 6.168 84.943-14.824 112.079-28.136zM2064.994 221.842l3.413 0.78-41.862 131.438-3.023-1c-21.504-6.949-41.643-11.288-75.605-11.288-33.841 0-49.981 2.024-66.219 4.73v400.36h-139.093v-511.683l2.146-0.731c58.002-20.090 137.704-27.234 192.951-27.234 53.614 0 84.943 4.925 127.293 14.629zM498.078 207.214c143.896 0 229.815 87.211 229.815 233.374v306.274h-138.069v-316.684c0-59.49-33.353-88.405-101.961-88.405-37.912 0-56.125 1.048-81.53 4.803v400.286h-139.093v-511.732l2.243-0.731c51.883-16.262 143.726-27.185 228.596-27.185zM0 746.862v-527.165h139.093v527.165h-139.093zM2170.27 696.686c18.773 9.582 57.32 28.696 125.074 28.696 112.567 0 187.611-56.344 187.611-220.062v-38.254c0-163.718-75.045-220.062-187.611-220.062-57.32 0-97.963 14.872-125.074 27.648v422.034zM2519.43 505.32c0 184.978-93.794 255.147-224.085 255.147-54.199 0-96.939-10.63-125.074-25.502v282.77h-36.474v-765.44c43.764-26.551 95.89-40.375 161.548-40.375 130.292 0 224.085 70.168 224.085 255.147v38.254zM2943.634 440.466l-125.074 10.63c-111.518 9.582-187.611 41.472-187.611 135.022v4.242c0 93.55 71.924 135.022 177.176 135.022 60.465 0 104.229-12.751 135.509-26.551v-258.365zM2980.108 720.091c-42.74 23.357-88.6 40.375-171.983 40.375-122.978 0-213.65-54.199-213.65-170.106v-4.242c0-109.495 95.866-158.379 224.085-170.106l125.074-11.678v-11.703c0-111.616-62.537-145.627-156.355-145.627-66.706 0-118.808 22.309-155.282 48.908l-17.725-30.842c47.933-34.011 106.301-53.15 173.007-53.15 109.446 0 192.829 45.714 192.829 180.712v327.461zM3432.424 275.7c-34.402-15.945-65.658-28.696-135.485-28.696-106.325 0-177.201 56.344-177.201 220.062v38.254c0 163.718 75.045 220.062 187.611 220.062 45.861 0 93.818-10.63 125.074-27.648v-422.034zM3468.898 783.872c0 153.064-82.334 233.862-192.805 233.862-67.755 0-126.123-18.066-173.032-52.102l17.725-30.818c41.691 30.818 91.721 47.835 155.307 47.835 92.745 0 156.331-60.587 156.331-198.778v-45.714c-38.571 15.921-81.286 22.309-125.074 22.309-130.267 0-224.085-70.168-224.085-255.147v-38.254c0-184.978 89.649-255.147 213.675-255.147 68.779 0 129.243 15.945 171.959 40.375v531.578z"></path>
</svg>
