<!-- Generated by IcoMoon.io -->
<svg version="1.1" xmlns="http://www.w3.org/2000/svg" width="3098" height="1024" viewBox="0 0 3098 1024">
<title></title>
<g id="icomoon-ignore">
</g>
<path fill="#4b4e5c" d="M1206.989 768h60.058v-390.989h-60.058v390.989zM1237.53 312.858c23.424 0 42.752-18.33 42.752-40.73s-19.328-40.704-42.752-40.704c-23.424 0-42.778 18.304-42.778 40.704s19.354 40.73 42.778 40.73z"></path>
<path fill="#4b4e5c" d="M1601.075 516.506h-228.070v55.987h228.070v-55.987z"></path>
<path fill="#4b4e5c" d="M1994.778 480.358c-12.749-66.176-65.69-108.442-157.312-108.442-94.182 0-158.336 46.336-158.080 118.63-0.256 57.011 34.867 94.694 109.952 110.208l66.714 14.003c35.891 7.885 52.685 22.4 52.685 44.544 0 26.726-29.030 46.848-72.806 46.848-42.266 0-69.734-18.33-77.645-53.453l-89.856 8.653c11.469 71.782 71.782 114.278 167.757 114.278 97.741 0 166.733-50.662 166.989-124.723-0.256-55.757-36.147-89.856-109.978-105.882l-66.688-14.259c-39.706-8.909-55.501-22.656-55.245-45.312-0.256-26.47 29.030-44.8 67.456-44.8 42.522 0 64.922 23.168 72.038 48.87l84.019-9.165z"></path>
<path fill="#4b4e5c" d="M2191.667 775.885c61.338 0 97.997-28.774 114.79-61.594h3.046v53.709h88.576v-261.683c0-103.347-84.762-134.4-157.542-134.4-84.019 0-146.637 36.659-166.989 107.93l86.042 12.211c9.165-26.726 35.123-49.638 80.179-49.638 43.264 0 65.92 22.144 66.176 60.851 0.256 25.702-25.958 28.518-89.856 35.379-2.278 0.256-4.582 0.512-6.861 0.768-75.853 8.141-148.403 30.797-148.403 118.861 0 76.877 56.243 117.606 130.842 117.606zM2215.578 708.173c-38.426 0-65.92-17.562-65.92-51.405 0-35.405 30.797-50.15 72.038-56.013 24.166-3.302 72.55-9.421 84.506-19.098v46.080c0 43.52-35.123 80.435-90.624 80.435z"></path>
<path fill="#4b4e5c" d="M2691.328 377.011h-81.203v-30.797c0-30.541 12.723-47.59 47.104-47.59 14.49 0 26.726 3.302 34.355 5.581l18.586-71.27c-11.981-4.070-38.195-10.675-70.016-10.675-67.942 0-122.163 38.938-122.163 117.837v36.915h-57.779v71.27h57.779v319.718h92.134v-319.718h81.203v-71.27z"></path>
<path fill="#4b4e5c" d="M2923.162 775.629c90.854 0 153.728-44.544 170.035-112.512l-86.298-9.677c-12.467 33.101-42.752 50.406-82.714 50.406-59.571 0-99.021-39.194-99.789-106.138h272.358v-28.262c0-137.19-82.483-197.53-178.688-197.53-112 0-185.062 82.227-185.062 202.88 0 122.701 72.038 200.832 190.157 200.832zM2824.653 535.603c3.046-49.894 39.706-91.904 94.694-91.904 53.197 0 88.832 38.707 89.088 91.904h-183.782z"></path>
<path fill="none" stroke="#6a6e81" stroke-linejoin="round" stroke-linecap="butt" stroke-miterlimit="4" stroke-width="35.84" d="M435.2 981.325l-17.254-7.014c-453.171-184.192-389.632-711.142-388.941-716.442l3.021-22.989 403.174-209.28 403.174 209.28 3.021 22.989c0.691 5.299 64.23 532.25-388.915 716.442l-17.28 7.014z"></path>
<path fill="none" stroke="#6a6e81" stroke-linejoin="round" stroke-linecap="butt" stroke-miterlimit="4" stroke-width="35.84" d="M290.125 435.2h290.15c14.138 0 25.6 11.462 25.6 25.6v0 187.725c0 14.138-11.462 25.6-25.6 25.6v0h-290.15c-14.138 0-25.6-11.462-25.6-25.6v0-187.725c0-14.138 11.462-25.6 25.6-25.6v0z"></path>
<path fill="none" stroke="#6a6e81" stroke-linejoin="round" stroke-linecap="butt" stroke-miterlimit="4" stroke-width="35.84" d="M332.8 432.077v-80.666c0-55.706 45.824-100.838 102.4-100.838 56.55 0 102.4 45.133 102.4 100.838v80.666"></path>
</svg>
