<!-- Generated by IcoMoon.io -->
<svg version="1.1" xmlns="http://www.w3.org/2000/svg" width="977" height="1024" viewBox="0 0 977 1024">
<title></title>
<g id="icomoon-ignore">
</g>
<path fill="#b3b3b3" d="M648.239 226.053l-143.56-33.843v-30.278c44.309-10.687 72.667-51.654 63.805-96.182-8.86-44.53-51.398-73.027-95.707-64.121-37.22 8.904-65.578 40.965-65.578 80.151h31.902c0-28.5 21.269-49.873 49.627-49.873s49.627 21.374 49.627 49.873c0 28.497-21.269 49.871-49.627 49.871-10.633 0-15.951 7.124-15.951 16.030v46.31l-145.334 32.061 17.725 30.278 143.56-33.841 145.334 33.841 14.178-30.278z"></path>
<path fill="#ff8700" d="M194.516 416.633v603.806c0 1.78 1.773 3.561 3.547 3.561h579.561c1.771 0 3.544-1.78 3.544-3.561v-603.806z"></path>
<path fill="#ff8700" d="M244.143 416.633l-111.658 112.212c-1.773 1.78-3.547 1.78-5.318 0l-125.838-126.462c-1.771-1.78-1.771-3.563 0-5.343l145.334-146.053c10.633-10.687 23.040-16.030 37.22-19.593l154.193-28.497c1.773 0 3.547 1.78 3.547 3.563 1.771 69.464 67.349 124.679 147.105 124.679s143.56-55.215 147.105-124.679c0-1.783 1.773-3.563 3.547-3.563l154.193 28.497c14.18 1.783 26.587 8.906 37.22 19.593l145.334 146.053c1.771 1.78 1.771 3.563 0 5.343l-125.838 126.462c-1.771 1.78-3.544 1.78-5.318 0l-111.658-112.212z"></path>
</svg>
