<!-- Generated by IcoMoon.io -->
<svg version="1.1" xmlns="http://www.w3.org/2000/svg" width="2449" height="1024" viewBox="0 0 2449 1024">
<title></title>
<g id="icomoon-ignore">
</g>
<path fill="#b3b3b3" d="M1998.554 1024c108.98 0 197.325-88.344 197.325-197.32 0-108.98-88.344-197.325-197.325-197.325-108.976 0-197.32 88.344-197.32 197.325 0 108.976 88.344 197.32 197.32 197.32z"></path>
<path fill="#b3b3b3" d="M924.022 1024c108.976 0 197.32-88.344 197.32-197.32 0-108.98-88.344-197.325-197.32-197.325-108.98 0-197.325 88.344-197.325 197.325 0 108.976 88.344 197.32 197.325 197.32z"></path>
<path fill="#ff8700" d="M2430.584 561.504v3.112c0 31.156 0 65.082 0 95.201-5.579 53.248-30.729 102.525-70.576 138.28-39.851 35.755-91.555 55.438-145.096 55.234h-1973.212c-56.997-0.178-111.629-22.808-152.060-62.98-40.435-40.172-63.412-94.658-63.96-151.65v-192.824c0.031-33.044 5.77-65.834 16.963-96.928 10.040-27.813 24.411-53.867 42.581-77.196l152.318-198.015c20.912-23.249 46.485-41.828 75.055-54.535 28.574-12.707 59.499-19.247 90.766-19.202h1188.775c124.278 0 219.479 96.238 223.633 100.045l242.323 242.327c4.158 3.807 0 5.539 5.886 5.539h73.39c42.656-0.223 85.29 1.741 127.742 5.886 44.491 10.382 84.52 34.674 114.274 69.347 29.754 34.669 47.687 77.917 51.2 123.472-0.347 5.539 0 10.387 0 14.888z"></path>
<path fill="#ffba8c" d="M2065.359 348.952h-649.087c-0.89 0.347-1.879 0.347-2.769 0l-242.323-242.327c-0.73-0.481-1.269-1.202-1.532-2.039s-0.227-1.736 0.098-2.547c0.325-0.815 0.922-1.491 1.687-1.914 0.766-0.427 1.652-0.574 2.515-0.423h641.816l249.593 249.251z"></path>
<path fill="#b3b3b3" d="M403.714 1024c108.976 0 197.32-88.344 197.32-197.32 0-108.98-88.344-197.325-197.32-197.325-108.98 0-197.325 88.344-197.325 197.325 0 108.976 88.344 197.32 197.325 197.32z"></path>
<path fill="#fff" d="M403.714 951.999c69.213 0 125.32-56.106 125.32-125.315s-56.106-125.315-125.32-125.315c-69.209 0-125.315 56.106-125.315 125.315s56.106 125.315 125.315 125.315z"></path>
<path fill="#b3b3b3" d="M1483.447 1024c108.976 0 197.32-88.344 197.32-197.32 0-108.98-88.344-197.325-197.32-197.325s-197.32 88.344-197.32 197.325c0 108.976 88.344 197.32 197.32 197.32z"></path>
<path fill="#ffba8c" d="M302.628 100.054h-84.814l-131.548 171.012c-18.169 23.329-32.541 49.384-42.581 77.196h494.343c0.89 0.049 1.785-0.089 2.622-0.396 0.841-0.312 1.607-0.788 2.253-1.402 0.65-0.614 1.166-1.358 1.518-2.177 0.352-0.824 0.53-1.705 0.53-2.6v-235.4c0-1.839-0.73-3.597-2.026-4.897-1.3-1.3-3.063-2.026-4.897-2.026l-235.4 0.69z"></path>
<path fill="#ffba8c" d="M1309.322 342.025l-238.864-238.864c-2.115-1.87-4.799-2.97-7.618-3.117h-439.643c-1.839 0-3.597 0.73-4.897 2.030-1.3 1.296-2.030 3.059-2.030 4.893v235.057c0 1.834 0.73 3.597 2.030 4.897 1.3 1.296 3.059 2.026 4.897 2.026h683.355c0.775-0.058 1.514-0.334 2.141-0.792 0.623-0.459 1.109-1.086 1.398-1.808s0.37-1.505 0.232-2.271c-0.134-0.766-0.481-1.478-1.002-2.052z"></path>
<path fill="#fff" d="M1483.442 951.999c69.209 0 125.315-56.106 125.315-125.315s-56.106-125.315-125.315-125.315c-69.209 0-125.315 56.106-125.315 125.315s56.106 125.315 125.315 125.315z"></path>
<path fill="none" stroke="#ffba8c" stroke-linejoin="round" stroke-linecap="round" stroke-miterlimit="4" stroke-width="40.5262" d="M664.393 443.116h175.166"></path>
<path fill="#f4f5f9" d="M2429.894 547.657h-126.357c-12.738-1.474-24.491-7.578-33.022-17.15-8.53-9.577-13.245-21.954-13.245-34.776s4.715-25.199 13.245-34.776c8.53-9.572 20.284-15.676 33.022-17.15h89.662c21.072 30.827 33.721 66.627 36.695 103.851z"></path>
<path fill="#f4f5f9" d="M1913.397 443.116h-136.397c-28.868 0-52.273 23.405-52.273 52.273 0 28.872 23.405 52.273 52.273 52.273h136.397c28.868 0 52.273-23.401 52.273-52.273 0-28.868-23.405-52.273-52.273-52.273z"></path>
</svg>
