<!-- Generated by IcoMoon.io -->
<svg version="1.1" xmlns="http://www.w3.org/2000/svg" width="1474" height="1024" viewBox="0 0 1474 1024">
<title></title>
<g id="icomoon-ignore">
</g>
<path fill="#ccc" d="M832.792 212.91h388.258c0 0 57.012 1.159 57.012-34.931 0 0-5.927-63.883-95.225-34.739 7.355-2.51-10.832-43.038-12.875-46.127-6.439-10.068-15.522-18.395-26.372-24.174-10.847-5.779-23.090-8.816-35.545-8.816-12.453 0-24.698 3.037-35.545 8.816s-19.931 14.106-26.372 24.174c9.196-16.017-12.056-52.686-22.068-63.88-15.665-14.953-35.583-25.298-57.342-29.783-21.759-4.488-44.429-2.922-65.266 4.501-34.739 14.476-45.161 52.881-44.139 85.884 0-6.369-38.008-12.738-42.708-13.125-39.641-3.087-65.798 38.6-62.324 71.408 3.012 17.775 12.927 33.852 27.815 45.093 14.885 11.239 33.675 16.839 52.696 15.7z"></path>
<path fill="#ccc" d="M443.714 1006.312h224.78c9.144-3.849 16.769-10.32 21.796-18.497 5.025-8.177 7.193-17.643 6.199-27.049-0.912-7.031-3.694-13.727-8.090-19.466-4.396-5.737-10.26-10.327-17.046-13.344-11.391-4.61-23.952-6.017-36.17-4.051-11.419 1.506-22.096 6.211-30.653 13.509 1.786-17.058-3.242-34.129-14.099-47.863-10.178-9.726-23.125-16.454-37.271-19.366s-28.884-1.883-42.424 2.962c-11.459 5.52-20.228 14.993-24.489 26.457-4.263 11.461-3.689 24.034 1.601 35.108-14.918-11.876-33.63-18.672-53.128-19.299-12.76 1.991-24.266 8.427-32.249 18.037s-11.861 21.699-10.869 33.877c2.088 11.414 8.559 21.699 18.17 28.889 9.613 7.193 21.696 10.787 33.939 10.095z"></path>
<path fill="#ff8700" d="M1460.127 553.927c0.657 11.222-0.445 22.473-3.269 33.39-1.189 4.653-2.692 9.228-4.498 13.702-9.256 23.709-27.446 43.36-51.085 55.196-27.983 11.604-58.131 17.835-88.686 18.335-125.877 8.492-253.797-1.738-379.267-9.843-125.467-8.107-246.849-19.299-369.662-34.159-162.866-17.435-324.705-42.556-484.911-75.269-17.306-3.664-32.785-12.755-43.92-25.792-11.132-13.037-17.261-29.251-17.386-46v-293.93h3.474c31.934-0.427 62.784 10.929 85.986 31.654 23.205 20.725 36.929 49.182 38.258 79.318l3.676 106.533h584.429c152.239 0 304.068-3.861 456.102-1.931 17.573 0 36.782 0 56.397 2.895 61.305 5.984 128.534 21.616 171.243 60.214 5.859 5.447 11.257 11.319 16.144 17.563 11.998 15.313 20.36 32.888 24.521 51.53 1.344 5.452 2.165 11.007 2.453 16.596z"></path>
<path fill="#ffba8c" d="M878.964 606.81c1.399 0.1 2.715 0.669 3.714 1.601 0.997 0.932 1.611 2.17 1.736 3.489 0.122 1.321-0.255 2.64-1.066 3.721-0.809 1.084-2.001 1.858-3.362 2.188l-602.412 190.679c-11.734 3.472-24.361 3.112-35.852-1.019s-21.174-11.793-27.496-21.754c-4.286-6.646-7.063-14.061-8.157-21.774-1.091-7.712-0.475-15.557 1.811-23.033s6.194-14.421 11.471-20.398c5.28-5.974 11.816-10.847 19.194-14.311l268.305-119.076c6.748-3.015 14.224-4.281 21.661-3.666l350.453 23.352z"></path>
<path fill="#ffba8c" d="M1460.132 553.932c0.659 11.219-0.445 22.471-3.269 33.387-35.555 2.702-78.468 6.174-86.028 6.174-41.504 3.292-83.096-5.317-119.338-24.703-15.308-9.788-27.176-23.664-34.092-39.856s-8.564-33.962-4.735-51.043c1.636-10.035 17.575-68.126 33.105-69.864 61.303 5.984 128.534 21.616 171.243 60.214 5.857 5.447 11.254 11.319 16.142 17.563 11.998 15.315 20.363 32.89 24.521 51.53 1.346 5.452 2.165 11.007 2.453 16.599z"></path>
<path fill="#ffba8c" d="M1031.41 448.177c15.12-12.161 61.303-9.458 63.755 12.35 1.431 17.563 4.496 64.847-15.53 75.461-8.17 3.861-17.251 5.674-26.377 5.27-9.124-0.407-17.982-3.017-25.732-7.585-5.080-5.932-8.719-12.84-10.66-20.243-1.943-7.405-2.14-15.12-0.579-22.603-0.282-15.432 5.055-30.49 15.123-42.651z"></path>
<path fill="#ffba8c" d="M919.442 448.562c15.123-12.158 61.305-9.456 63.963 12.35 1.429 17.563 4.496 64.847-15.532 75.461-8.167 3.861-17.251 5.674-26.374 5.27s-17.985-3.017-25.732-7.585c-5.103-5.922-8.771-12.822-10.75-20.225-1.976-7.4-2.213-15.123-0.694-22.62-0.185-15.417 5.142-30.445 15.12-42.651z"></path>
<path fill="#ffba8c" d="M807.654 449.136c15.12-12.353 61.303-9.651 63.96 12.158 1.431 17.755 4.291 64.847-15.53 75.461-8.152 3.889-17.223 5.734-26.349 5.365-9.124-0.372-17.992-2.95-25.76-7.488-5.105-5.957-8.776-12.892-10.752-20.325-1.976-7.435-2.213-15.185-0.692-22.713-0.22-15.365 5.115-30.343 15.123-42.459z"></path>
<path fill="#ffba8c" d="M695.878 449.524c15.12-12.35 61.303-9.456 63.755 12.353 1.633 17.563 4.496 64.652-15.53 75.266-8.135 3.944-17.216 5.822-26.352 5.45s-18.012-2.982-25.757-7.573c-5.083-5.964-8.724-12.907-10.665-20.343-1.943-7.435-2.138-15.18-0.574-22.695-0.187-15.36 5.142-30.328 15.123-42.459z"></path>
<path fill="#ffba8c" d="M584.11 449.911c15.123-12.161 61.305-9.458 63.758 12.35 1.429 17.563 4.496 64.847-15.532 75.461-8.167 3.859-17.248 5.674-26.374 5.27-9.124-0.407-17.985-3.017-25.732-7.585-5.068-5.942-8.711-12.845-10.687-20.24s-2.233-15.108-0.757-22.605c-0.11-15.44 5.287-30.465 15.325-42.651z"></path>
</svg>
