<!-- Generated by IcoMoon.io -->
<svg version="1.1" xmlns="http://www.w3.org/2000/svg" width="1024" height="1024" viewBox="0 0 1024 1024">
<title></title>
<g id="icomoon-ignore">
</g>
<path fill="#ff8700" d="M512 1024c282.771 0 512-229.229 512-512s-229.229-512-512-512c-282.771 0-512 229.229-512 512s229.229 512 512 512z"></path>
<path fill="#ff500f" d="M12.8 552.229c65.829-64 175.544-84.115 254.171-47.544-69.485 98.744-120.685 212.115-149.942 332.8 9.142 10.971 18.285 20.115 27.427 29.258 1.829-1.829 5.488-5.488 5.488-9.144 27.427-122.515 78.627-235.885 148.112-334.629 47.544 36.573 69.488 95.085 64 171.885v3.658c5.488 111.542 67.658 212.115 170.058 270.629 32.915 18.285 65.829 31.085 100.571 38.4 31.085-7.315 60.344-18.288 87.771-29.258-54.856 3.658-115.2-9.142-170.056-40.229-91.429-53.027-148.115-142.627-151.771-239.542 7.315-111.544-36.573-171.885-78.629-202.971 27.429-34.744 56.685-69.488 89.6-100.573 131.656 122.515 254.171 252.344 367.544 389.485l78.627 95.088 27.429-23.773-78.629-95.085c-115.2-138.971-237.715-268.8-369.371-391.315 25.6-23.771 53.029-43.885 80.456-64 43.888 54.858 113.373 82.285 201.144 76.8 82.285 3.658 160.915 49.373 212.115 124.344 40.229 58.515 62.171 128 60.342 192 10.973-29.258 20.115-60.344 25.6-91.429-10.971-42.056-29.256-84.115-56.685-120.685-60.342-84.115-148.115-135.315-241.371-138.971h-3.656c-74.973 5.485-133.488-16.458-170.058-60.344 96.915-65.829 202.971-111.542 316.344-137.142 3.656 0 7.315-3.658 9.142-5.488-9.142-9.142-20.115-18.285-29.256-27.427-113.371 27.427-219.429 73.142-312.685 135.315-34.744-71.315-23.773-171.888 31.085-241.373l7.315-9.142c-18.285-1.829-34.744-1.829-53.029-1.829v10.971c-51.2 80.458-58.515 184.685-16.456 263.315-31.088 21.944-58.515 45.715-87.773 71.315-60.342-54.856-120.685-107.885-184.685-159.085l-58.515-49.371c-9.142 7.312-18.285 16.456-27.427 25.6l64 51.2c62.171 49.371 120.685 102.4 181.027 155.427-34.742 32.915-65.827 67.658-93.256 106.058-1.829-1.829-3.658-1.829-5.485-3.658-85.944-40.227-201.144-23.771-279.773 40.229h-3.656c0 16.456 0 32.915 1.829 51.2l10.971-10.971z"></path>
</svg>
