<!-- Generated by IcoMoon.io -->
<svg version="1.1" xmlns="http://www.w3.org/2000/svg" width="762" height="1024" viewBox="0 0 762 1024">
<title></title>
<g id="icomoon-ignore">
</g>
<path fill="#d8d8d8" d="M285.767 341.53h-234.656c-18.587 0-32.525 13.65-32.525 31.849v127.395h299.706v-127.395c0-18.199-13.938-31.849-32.525-31.849z"></path>
<path fill="#ff8700" d="M336.879 441.625v516.401c0 36.4-30.203 65.974-67.374 65.974h-202.128c-37.174 0-67.377-29.575-67.377-65.974v-516.401h336.879z"></path>
<path fill="#ff500f" d="M0 548.547h336.879v75.093h-336.879v-75.093z"></path>
<path fill="#ff8700" d="M762.047 525.795v432.233c0 36.397-30.203 65.972-67.377 65.972h-202.128c-37.174 0-67.377-29.575-67.377-65.972v-432.233h336.882z"></path>
<path fill="#ff500f" d="M425.165 632.718h336.882v75.093h-336.882v-75.093z"></path>
<path fill="#ff500f" d="M278.797 91.291v250.239h-220.715v-304.835c0-27.3 27.881-43.225 51.114-34.125l16.263 6.825 127.781 47.773c13.941 4.551 25.557 18.199 25.557 34.123z"></path>
</svg>
