<!-- Generated by IcoMoon.io -->
<svg version="1.1" xmlns="http://www.w3.org/2000/svg" width="902" height="1024" viewBox="0 0 902 1024">
<title></title>
<g id="icomoon-ignore">
</g>
<path fill="#ff8700" d="M445.481 23.413h-0.997c-93.116 3.369-184.839 23.65-270.697 59.843-48.521 19.373-94.479 44.632-136.843 75.205l-6.383 4.986c-3.923 3.040-7.044 6.992-9.094 11.51-2.053 4.518-2.97 9.47-2.675 14.421l21.743 428.685c2.706 30.52 12.076 60.075 27.448 86.579 15.372 26.507 36.372 49.315 61.52 66.821l308.595 222.82c5.298 3.874 11.691 5.961 18.254 5.961 6.561 0 12.954-2.087 18.252-5.961l308.797-222.82c25.073-17.442 46.029-40.158 61.399-66.553 15.367-26.395 24.778-55.832 27.57-86.25l21.743-428.683c0.293-4.954-0.624-9.904-2.675-14.424-2.050-4.518-5.174-8.468-9.097-11.508-40.294-30.293-84.18-55.486-130.658-75.006-96.163-43.635-200.604-66.019-306.203-65.629z"></path>
<path fill="#fff" d="M456.446 742.939c218.032-147.817 293.634-296.828 245.16-398.963-41.092-85.975-158.186-99.74-231.795-18.152l-13.366 14.96-13.566-14.96c-73.409-82.186-190.703-67.823-231.597 18.152-48.474 101.734 27.131 251.146 245.163 398.963z"></path>
</svg>
