<!-- Generated by IcoMoon.io -->
<svg version="1.1" xmlns="http://www.w3.org/2000/svg" width="546" height="1024" viewBox="0 0 546 1024">
<title></title>
<g id="icomoon-ignore">
</g>
<path fill="#ff8700" d="M499.653 20.833h-453.172c-25.671 0-46.48 20.582-46.48 45.971v908.588c0 25.388 20.81 45.968 46.48 45.968h453.172c25.671 0 46.48-20.58 46.48-45.968v-908.588c0-25.388-20.81-45.971-46.48-45.971z"></path>
<path fill="#f8c273" d="M273.187 974.038c17.868 0 32.354-14.327 32.354-32.001 0-17.672-14.486-31.999-32.354-31.999-17.87 0-32.354 14.327-32.354 31.999 0 17.674 14.484 32.001 32.354 32.001z"></path>
<path fill="#fff" d="M494.66 77.166h-442.693v796.592h442.693v-796.592z"></path>
</svg>
