<!-- Generated by IcoMoon.io -->
<svg version="1.1" xmlns="http://www.w3.org/2000/svg" width="1664" height="1024" viewBox="0 0 1664 1024">
<title></title>
<g id="icomoon-ignore">
</g>
<path fill="#ff8700" d="M1658.102 432.464v569.715h-969.773l-1.050-559.504 478.342-322.56 492.48 312.349z"></path>
<path fill="#ff500f" d="M1531.904 600.557h-190.605v401.629h190.605v-401.629z"></path>
<path fill="#fff" d="M1137.35 533.789h-261.818v273.338h261.818v-273.338z"></path>
<path fill="#ff8700" d="M1137.35 657.366v26.182h-117.818v123.578h-26.182v-123.578h-117.818v-26.182h117.818v-123.578h26.182v123.578h117.818z"></path>
<path fill="#ccc" d="M39.546 433.766c17.754-33.248 32.899-67.824 45.296-103.418 10.762-40.749 18.547-82.224 23.302-124.102 2.246-42.694 14.15-84.32 34.822-121.744 12.87-18.534 29.501-34.154 48.81-45.837 19.306-11.683 40.858-19.171 63.248-21.974 175.942-23.827 300.304 172.275 314.182 324.915 9.162 104.73-21.731 212.336-104.73 280.669-53.965 42.067-118.63 68.186-186.675 75.405-89.805 12.045-214.954 0-256.582-94.515-25.658-58.65-7.069-114.678 18.326-169.398z"></path>
<path fill="#b3b3b3" d="M277.798 1008.73c-3.472 0-6.803-1.379-9.258-3.834-2.454-2.458-3.834-5.786-3.834-9.258v-710.835c0-3.472 1.379-6.803 3.834-9.258s5.786-3.834 9.258-3.834c3.472 0 6.8 1.379 9.258 3.834 2.454 2.454 3.834 5.786 3.834 9.258v710.835c0 3.472-1.379 6.8-3.834 9.258-2.458 2.454-5.786 3.834-9.258 3.834z"></path>
<path fill="#b3b3b3" d="M277.811 604.477c-2.755 0.022-5.434-0.902-7.59-2.618-1.408-0.966-2.608-2.205-3.53-3.645-0.922-1.437-1.549-3.043-1.84-4.726-0.294-1.683-0.246-3.408 0.134-5.072 0.384-1.664 1.094-3.235 2.093-4.621l149.235-209.456c2.131-2.486 5.117-4.086 8.368-4.48s6.534 0.445 9.197 2.352c2.662 1.907 4.515 4.742 5.19 7.949 0.672 3.206 0.122 6.547-1.549 9.366l-149.235 209.453c-1.162 1.706-2.723 3.101-4.55 4.058-1.824 0.96-3.859 1.456-5.923 1.44z"></path>
<path fill="#b3b3b3" d="M277.808 488.227c-1.946 0.022-3.869-0.387-5.635-1.203s-3.331-2.013-4.576-3.507l-78.544-95.827c-1.789-2.704-2.512-5.978-2.026-9.184 0.483-3.206 2.144-6.118 4.653-8.173 2.509-2.051 5.693-3.101 8.931-2.941 3.238 0.157 6.304 1.514 8.602 3.805l78.544 95.562c2.218 2.691 3.293 6.141 3.002 9.616-0.294 3.472-1.936 6.694-4.573 8.973-2.429 1.802-5.354 2.806-8.378 2.88z"></path>
</svg>
