<!-- Generated by IcoMoon.io -->
<svg version="1.1" xmlns="http://www.w3.org/2000/svg" width="1552" height="1024" viewBox="0 0 1552 1024">
<title></title>
<g id="icomoon-ignore">
</g>
<path fill="#b3b3b3" d="M1324.141 372.646c15.233 55.855 66.011 91.4 121.865 91.4 20.309 0 35.545 12.691 40.622 30.466l40.622 152.331c5.077 22.848-7.618 45.698-30.466 53.313l-1068.854 294.509c-22.851 7.615-48.237-7.618-53.316-30.469l-40.622-152.331c-5.077-17.771 2.541-38.080 20.312-48.237 48.237-27.927 73.626-86.32 58.393-142.175s-66.011-91.4-121.865-91.4c-20.309 0-35.542-12.694-40.622-30.466l-40.619-152.331c-5.080-22.848 7.615-45.698 30.466-53.316l1066.313-291.967c22.851-5.077 45.698 7.618 53.316 30.469l40.622 152.331c5.077 17.771-2.538 38.080-20.312 48.237-48.237 27.927-73.626 83.782-55.855 139.636z"></path>
<path fill="#ff8700" d="M1110.879 629.071c0 58.393 40.622 109.168 93.938 121.862 17.771 5.080 33.004 22.851 33.004 43.16v159.949c0 25.389-20.309 43.16-43.16 43.16h-1129.785c-25.386 0-43.16-20.312-43.16-43.16v-159.949c0-20.309 12.694-38.080 33.007-43.16 55.855-15.233 93.935-63.469 93.935-121.862 0-58.396-40.619-109.171-93.935-121.865-17.774-5.080-33.007-22.851-33.007-43.16v-159.949c0-25.389 20.312-43.16 43.16-43.16h1129.785c25.389 0 43.16 20.312 43.16 43.16v159.949c0 20.309-12.691 38.080-33.004 43.16-53.316 12.694-93.938 63.469-93.938 121.865z"></path>
<path fill="#f8c273" d="M506.638 415.806l71.087 139.636 152.331 22.851-111.709 109.171 27.927 154.869-139.636-73.626-137.098 73.626 25.389-154.869-111.709-109.171 154.869-22.851 68.549-139.636z"></path>
<path fill="#ffba8c" d="M935.697 672.231c-5.077 0-10.156 5.077-10.156 10.156v109.171c0 5.077 5.080 10.153 10.156 10.153s10.156-5.077 10.156-10.153v-109.171c0-5.080-5.080-10.156-10.156-10.156zM935.697 893.111c-5.077 0-10.156 5.077-10.156 10.153v93.938h20.312v-93.938c0-5.077-5.080-10.153-10.156-10.153z"></path>
<path fill="#ffba8c" d="M925.544 260.937v93.938c0 5.077 5.077 10.156 10.156 10.156 5.077 0 10.153-5.080 10.153-10.156v-93.938h-20.309zM935.7 453.89c-5.080 0-10.156 5.077-10.156 10.156v109.171c0 5.077 5.077 10.153 10.156 10.153 5.077 0 10.153-5.077 10.153-10.153v-109.171c0-5.080-5.077-10.156-10.153-10.156z"></path>
</svg>
