<!-- Generated by IcoMoon.io -->
<svg version="1.1" xmlns="http://www.w3.org/2000/svg" width="2722" height="1024" viewBox="0 0 2722 1024">
<title></title>
<g id="icomoon-ignore">
</g>
<path fill="#ff7a00" d="M166.238 319.003h-152.926c-7.357 0-13.312 5.955-13.312 13.312v640.566c0 7.357 5.955 13.339 13.312 13.339h152.926c7.357 0 13.339-5.982 13.339-13.339v-640.566c0-7.357-5.982-13.312-13.339-13.312z"></path>
<path fill="#ff7a00" d="M345.142 985.977h152.845c3.53 0 6.925-1.401 9.432-3.907 2.506-2.479 3.907-5.875 3.907-9.405v-481.415c-0.027-3.234 1.132-6.387 3.288-8.812 2.129-2.452 5.066-4.042 8.273-4.473 31.124-3.584 62.437-5.066 93.723-4.419 55.673 0 93.346 14.444 113.637 43.897 11.965 17.381 17.92 39.963 17.92 67.961v387.476c0.027 3.53 1.428 6.925 3.934 9.432s5.901 3.88 9.459 3.88h151.795c3.53 0 6.925-1.401 9.405-3.88 2.506-2.506 3.907-5.901 3.907-9.432v-374.299c0.566-41.795-6.144-83.348-19.779-122.853-39.37-109.918-137.027-172.544-276.884-172.544-104.529 0-217.304 12.611-285.588 31.663-2.776 0.808-5.201 2.479-6.925 4.77-1.725 2.317-2.641 5.12-2.641 7.976l-2.829 625.233c0.054 3.476 1.455 6.791 3.907 9.243 2.425 2.452 5.74 3.853 9.216 3.907z"></path>
<path fill="#ff7a00" d="M2303.165 972.881c0 3.53 1.428 6.925 3.934 9.432s5.901 3.88 9.432 3.88h152.872c3.53 0 6.925-1.401 9.432-3.88 2.479-2.506 3.88-5.901 3.88-9.432v-481.63c0-3.18 1.105-6.279 3.18-8.704 2.048-2.425 4.931-4.015 8.084-4.5 24.549-3.261 49.314-4.662 74.078-4.231 28.861-0.647 57.64 2.937 85.45 10.644 3.315 0.889 6.845 0.512 9.863-1.132 2.991-1.644 5.255-4.392 6.279-7.653l44.975-139.641c0.539-1.752 0.701-3.611 0.485-5.416-0.216-1.832-0.808-3.584-1.725-5.174s-2.156-2.964-3.638-4.042c-1.482-1.078-3.153-1.832-4.958-2.237-49.206-10.995-99.517-16.141-149.935-15.414-68.473 0-168.664 9.162-242.688 32.391-2.722 0.862-5.066 2.587-6.737 4.904-1.644 2.291-2.533 5.066-2.479 7.923l0.216 623.912z"></path>
<path fill="#ff7a00" d="M2124.989 815.239c-1.024-3.234-3.288-5.982-6.279-7.599-2.991-1.644-6.494-2.048-9.782-1.159-66.749 16.653-135.276 25.115-204.072 25.169-95.313 0-159.286-45.595-159.286-179.038 0-62.302 10.051-103.855 28.564-131.288 21.693-32.256 55.107-44.975 97.765-47.778 70.899-4.851 125.197 22.474 123.688 66.102l-179.362 92.16c-1.536 0.808-2.937 1.913-4.042 3.261-1.132 1.347-1.994 2.91-2.506 4.581-0.539 1.671-0.701 3.449-0.539 5.201s0.647 3.449 1.482 4.985l64.889 123.688c1.644 3.045 4.392 5.309 7.68 6.36s6.845 0.781 9.971-0.728l282.274-137.081c2.291-1.132 4.204-2.883 5.551-5.066 1.347-2.156 2.048-4.689 2.021-7.222-2.749-217.762-110.188-326.602-311.161-326.602-144.088 0-239.832 59.446-283.621 173.272-18.109 46.942-27.567 102.939-27.567 168.259v15.818c0 226.627 115.766 341.531 344.118 341.531 91.81 0 184.077-12.423 255.757-33.118 1.698-0.512 3.288-1.347 4.635-2.479 1.374-1.132 2.506-2.533 3.315-4.096 0.835-1.563 1.32-3.288 1.482-5.066 0.135-1.752-0.054-3.53-0.593-5.228l-44.382-136.839z"></path>
<path fill="#ff7a00" d="M1450.092 797.427c-35.032 16.869-82.89 43.385-144.653 35.571-53.437-6.791-81.085-29.346-81.085-86.744v-243.416c0-3.557 1.401-6.952 3.907-9.459 2.479-2.506 5.875-3.907 9.432-3.934h197.309c1.752 0 3.503-0.35 5.12-1.024 1.617-0.647 3.072-1.644 4.312-2.883s2.21-2.695 2.883-4.312c0.674-1.617 1.024-3.341 1.024-5.093v-143.603c0-3.53-1.401-6.925-3.907-9.432s-5.875-3.934-9.432-3.934h-197.309c-1.779 0-3.503-0.35-5.147-1.024-1.617-0.674-3.099-1.671-4.339-2.91-1.24-1.267-2.21-2.749-2.856-4.365-0.674-1.644-0.997-3.395-0.997-5.147v-242.472c0-2.291-0.593-4.554-1.725-6.575-1.105-1.994-2.749-3.665-4.716-4.877-1.967-1.186-4.204-1.832-6.521-1.886-2.291-0.081-4.554 0.458-6.602 1.536l-152.792 80.007c-2.183 1.105-3.988 2.803-5.255 4.877-1.267 2.102-1.94 4.473-1.967 6.925v601.546c0 167.37 90.705 262.494 259.746 262.494 69.255 0 127.057-14.956 217.25-59.715l25.223-12.746c3.126-1.563 5.497-4.285 6.629-7.572s0.943-6.899-0.539-10.024l-59.365-126.437c-0.781-1.617-1.859-3.072-3.18-4.258s-2.883-2.102-4.581-2.695c-1.671-0.566-3.476-0.808-5.255-0.701-1.779 0.135-3.503 0.593-5.093 1.401l-25.519 12.881z"></path>
<path fill="#7f7f7f" d="M116.493 61.844c10.617 5.848 19.402 14.579 25.304 25.196 6.252 11.48 9.405 24.414 9.162 37.484 0.216 13.123-2.937 26.085-9.162 37.619-5.821 10.752-14.605 19.618-25.304 25.519-11.237 6.090-23.848 9.162-36.595 8.947-9.027 0.108-17.974-1.59-26.328-5.012-7.869-3.288-14.767-8.515-20.076-15.171v18.028h-31.313v-194.452h32.795v71.572c5.47-6.063 12.234-10.806 19.779-13.878 7.976-3.315 16.519-4.985 25.142-4.958 12.773-0.135 25.357 2.991 36.595 9.108zM105.984 156.241c3.934-4.258 7.006-9.243 9.027-14.686 1.994-5.443 2.91-11.237 2.668-17.031 0.243-5.794-0.647-11.614-2.668-17.058-1.994-5.443-5.066-10.456-9.027-14.713-3.88-3.934-8.515-7.033-13.635-9.081s-10.59-3.018-16.115-2.829c-7.464-0.054-14.794 1.886-21.261 5.632-6.306 3.584-11.48 8.866-14.902 15.279-3.827 7.087-5.767 15.064-5.605 23.121-0.162 8.030 1.779 15.98 5.605 23.040 3.449 6.413 8.596 11.722 14.902 15.36 6.494 3.584 13.824 5.443 21.261 5.336 5.551 0.135 11.075-0.889 16.195-3.018s9.728-5.309 13.555-9.351z"></path>
<path fill="#7f7f7f" d="M485.672 68.419c10.644 10.294 15.98 25.6 15.98 45.864v80.168h-32.849v-75.992c0.755-9.997-2.344-19.887-8.65-27.675-3.207-3.207-7.060-5.686-11.318-7.276-4.231-1.617-8.785-2.291-13.312-1.994-5.255-0.269-10.483 0.566-15.414 2.425-4.904 1.886-9.378 4.743-13.15 8.435-7.464 8.677-11.264 19.941-10.509 31.367v70.71h-32.66v-139.911h31.151v18.028c5.497-6.494 12.531-11.533 20.453-14.659 8.839-3.503 18.27-5.255 27.783-5.174 7.788-0.35 15.522 0.862 22.824 3.557s13.986 6.818 19.672 12.126z"></path>
<path fill="#7f7f7f" d="M571.877 187.149c-11.21-5.821-20.561-14.686-27.001-25.573-6.521-11.237-9.863-24.037-9.674-37.053-0.216-12.989 3.126-25.789 9.674-36.999 6.467-10.779 15.764-19.564 26.893-25.411 12.126-6.279 25.654-9.432 39.343-9.162 12.611-0.296 25.115 2.587 36.325 8.381 10.159 5.363 18.378 13.797 23.444 24.118l-25.142 14.686c-3.665-6.090-8.839-11.129-15.064-14.579-8.084-4.123-17.246-5.659-26.22-4.392-9 1.267-17.354 5.282-23.983 11.48-4.096 4.204-7.276 9.216-9.351 14.686-2.075 5.497-3.018 11.345-2.749 17.192-0.269 5.848 0.647 11.668 2.695 17.139s5.201 10.456 9.243 14.686c6.656 6.252 15.117 10.294 24.172 11.56s18.297-0.296 26.408-4.473c6.225-3.449 11.426-8.488 15.091-14.579l25.115 14.686c-5.363 10.321-13.797 18.755-24.118 24.118-11.102 5.848-23.498 8.758-36.029 8.488-13.581 0.269-27.001-2.803-39.074-9z"></path>
<path fill="#7f7f7f" d="M723.672 187.149c-11.102-5.848-20.318-14.713-26.597-25.573-6.494-11.264-9.836-24.064-9.62-37.053-0.216-12.962 3.099-25.762 9.62-36.999 6.333-10.752 15.549-19.564 26.597-25.411 11.884-6.009 25.061-9.162 38.4-9.162s26.489 3.153 38.4 9.162c11.048 5.848 20.237 14.659 26.57 25.411 6.494 11.237 9.809 24.037 9.566 36.999 0.243 12.989-3.072 25.789-9.566 37.053-6.252 10.86-15.441 19.725-26.516 25.573-11.911 6.036-25.061 9.162-38.4 9.162s-26.489-3.126-38.4-9.162h-0.054zM791.795 156.241c3.988-4.231 7.087-9.216 9.135-14.659 2.021-5.443 2.937-11.237 2.668-17.058 0.269-5.821-0.647-11.614-2.668-17.085-2.021-5.443-5.12-10.456-9.135-14.686-8.003-7.707-18.701-12.019-29.804-12.019-11.129 0-21.827 4.312-29.831 12.019-3.961 4.258-7.006 9.27-9.027 14.713-1.994 5.47-2.883 11.264-2.614 17.058-0.269 5.794 0.62 11.587 2.641 17.031 1.994 5.443 5.039 10.429 9 14.686 8.003 7.707 18.701 12.019 29.831 12.019 11.102 0 21.8-4.312 29.804-12.019z"></path>
<path fill="#7f7f7f" d="M248.266 52.736c8.569-0.108 17.085 1.509 25.007 4.716 7.572 3.099 14.309 7.842 19.806 13.878v-16.842h32.768v139.965h-31.313v-18.028c-5.336 6.575-12.234 11.695-20.076 14.956-8.354 3.341-17.3 5.039-26.301 4.931-12.692 0.269-25.25-2.722-36.487-8.65-10.644-5.875-19.402-14.632-25.25-25.304-6.279-11.533-9.459-24.495-9.216-37.619-0.269-13.069 2.91-26.004 9.216-37.484 5.848-10.617 14.605-19.348 25.25-25.196 11.21-6.171 23.795-9.405 36.595-9.324zM251.931 168.044c7.411 0.108 14.74-1.752 21.235-5.336 6.306-3.638 11.48-8.947 14.902-15.36 3.853-7.060 5.794-15.010 5.632-23.040 0.135-8.057-1.779-16.034-5.632-23.121-3.422-6.387-8.569-11.695-14.902-15.279-6.44-3.719-13.797-5.659-21.235-5.632-5.524-0.162-11.021 0.808-16.141 2.883s-9.755 5.201-13.608 9.162c-3.961 4.231-7.033 9.243-9.027 14.686-2.021 5.47-2.91 11.264-2.668 17.058-0.243 5.794 0.647 11.587 2.668 17.031 1.994 5.443 5.066 10.429 9.027 14.686 3.8 4.069 8.408 7.276 13.528 9.432s10.644 3.18 16.222 3.045v-0.216z"></path>
</svg>
