<!-- Generated by IcoMoon.io -->
<svg version="1.1" xmlns="http://www.w3.org/2000/svg" width="2765" height="1024" viewBox="0 0 2765 1024">
<title></title>
<g id="icomoon-ignore">
</g>
<path fill="#fff" d="M169.267 324.275h-155.699c-7.501 0-13.568 6.067-13.568 13.542v651.213c0 7.475 6.067 13.542 13.568 13.542h155.699c7.501 0 13.568-6.067 13.568-13.542v-651.213c0-7.475-6.067-13.542-13.568-13.542z"></path>
<path fill="#fff" d="M351.437 1002.342h155.648c3.61 0 7.066-1.434 9.6-3.968s3.968-5.99 3.968-9.574v-489.395c0-3.302 1.178-6.502 3.354-8.96 2.176-2.483 5.171-4.096 8.448-4.531 31.667-3.661 63.565-5.171 95.437-4.506 56.678 0 95.027 14.669 115.686 44.621 12.186 17.664 18.253 40.627 18.253 69.094v393.907c0.026 3.584 1.459 7.040 4.019 9.574s6.016 3.968 9.626 3.968h154.547c3.61 0 7.066-1.434 9.6-3.968 2.56-2.534 3.968-5.99 3.968-9.574v-380.518c0.589-42.47-6.246-84.736-20.147-124.877-40.064-111.744-139.494-175.411-281.933-175.411-106.419 0-221.261 12.8-290.816 32.179-2.816 0.819-5.274 2.534-7.040 4.864-1.741 2.33-2.688 5.171-2.688 8.115l-2.867 635.597c0.051 3.507 1.459 6.886 3.942 9.37 2.509 2.509 5.862 3.942 9.395 3.994z"></path>
<path fill="#fff" d="M2345.216 989.030c0.026 3.584 1.459 7.040 4.019 9.574s6.016 3.968 9.626 3.968h155.648c3.584 0 7.040-1.434 9.6-3.968 2.534-2.534 3.968-5.99 3.968-9.574v-489.626c-0.026-3.251 1.126-6.374 3.226-8.858 2.099-2.458 5.018-4.070 8.218-4.582 25.011-3.277 50.227-4.71 75.443-4.275 29.389-0.666 58.701 2.995 87.014 10.803 3.379 0.922 6.963 0.512 10.035-1.152s5.35-4.454 6.4-7.782l45.798-141.952c0.538-1.792 0.717-3.661 0.486-5.504-0.205-1.869-0.819-3.635-1.741-5.248-0.947-1.613-2.202-3.021-3.712-4.122s-3.226-1.869-5.043-2.278c-50.099-11.162-101.35-16.41-152.678-15.667-69.734 0-171.75 9.318-247.142 32.922-2.739 0.896-5.146 2.637-6.835 4.992-1.69 2.33-2.586 5.171-2.56 8.038l0.23 634.291z"></path>
<path fill="#fff" d="M2163.814 828.774c-1.075-3.302-3.354-6.067-6.4-7.731s-6.63-2.099-9.984-1.178c-67.968 16.922-137.754 25.523-207.795 25.6-97.024 0-162.176-46.362-162.176-182.042 0-63.334 10.24-105.549 29.082-133.453 22.093-32.794 56.090-45.722 99.533-48.563 72.192-4.915 127.514 22.861 125.952 67.2l-182.605 93.67c-1.587 0.819-2.995 1.971-4.147 3.328s-2.022 2.944-2.56 4.659c-0.512 1.715-0.717 3.507-0.538 5.274 0.154 1.792 0.666 3.507 1.51 5.094l66.074 125.722c1.664 3.098 4.48 5.402 7.834 6.477 3.328 1.050 6.963 0.794 10.138-0.742l287.437-139.341c2.33-1.178 4.275-2.944 5.658-5.171 1.357-2.202 2.074-4.762 2.074-7.347-2.816-221.363-112.205-332.006-316.877-332.006-146.714 0-244.198 60.416-288.794 176.154-18.458 47.718-28.058 104.627-28.058 171.059v16.051c0 230.374 117.862 347.187 350.413 347.187 93.466 0 187.418-12.621 260.403-33.638 1.741-0.538 3.328-1.382 4.736-2.534 1.382-1.152 2.534-2.56 3.379-4.173 0.819-1.587 1.331-3.328 1.485-5.146 0.154-1.792-0.051-3.584-0.614-5.299l-45.158-139.11z"></path>
<path fill="#fff" d="M1476.557 810.65c-35.661 17.152-84.378 44.134-147.302 36.173-54.374-6.912-82.534-29.824-82.534-88.166v-247.475c0-3.61 1.434-7.066 3.968-9.6 2.534-2.56 5.99-3.994 9.6-4.019h200.934c1.766 0 3.533-0.333 5.197-1.024 1.638-0.691 3.123-1.69 4.403-2.944 1.254-1.254 2.253-2.739 2.944-4.378 0.666-1.664 1.024-3.405 1.024-5.197v-145.971c0-3.584-1.434-7.040-3.968-9.6-2.56-2.534-5.99-3.968-9.6-3.994h-200.934c-1.792 0-3.558-0.358-5.222-1.050s-3.149-1.69-4.403-2.97c-1.28-1.254-2.278-2.765-2.944-4.429-0.666-1.638-1.024-3.43-0.998-5.197v-246.502c0-2.355-0.589-4.659-1.741-6.682-1.152-2.048-2.816-3.738-4.813-4.966-2.022-1.203-4.301-1.869-6.63-1.946-2.355-0.051-4.685 0.486-6.733 1.587l-155.597 81.331c-2.227 1.126-4.070 2.842-5.35 4.966-1.306 2.125-1.971 4.557-1.997 7.040v611.507c0 170.163 92.339 266.854 264.499 266.854 70.528 0 129.382-15.206 221.184-60.698l25.702-12.979c3.174-1.587 5.581-4.326 6.758-7.68 1.152-3.328 0.947-6.989-0.563-10.189l-60.442-128.538c-0.794-1.638-1.894-3.123-3.251-4.326-1.331-1.203-2.918-2.15-4.634-2.739s-3.533-0.819-5.35-0.691c-1.818 0.102-3.584 0.589-5.222 1.408l-25.984 13.082z"></path>
<path fill="#fff" d="M118.63 62.874c10.829 5.939 19.763 14.822 25.754 25.6 6.374 11.674 9.6 24.832 9.344 38.118 0.23 13.338-2.995 26.496-9.344 38.246-5.914 10.931-14.874 19.917-25.754 25.933-11.443 6.195-24.269 9.318-37.274 9.088-9.19 0.102-18.278-1.613-26.778-5.094-8.013-3.328-15.053-8.653-20.454-15.411v18.33h-31.872v-197.683h33.357v72.755c5.581-6.144 12.467-10.957 20.173-14.106 8.090-3.379 16.794-5.069 25.574-5.043 13.005-0.154 25.856 3.046 37.274 9.267zM107.93 158.822c4.019-4.301 7.142-9.395 9.19-14.925s2.97-11.418 2.714-17.306c0.256-5.914-0.666-11.802-2.714-17.331-2.048-5.555-5.171-10.624-9.19-14.95-3.942-4.019-8.653-7.168-13.875-9.242-5.197-2.099-10.803-3.072-16.41-2.893-7.603-0.026-15.078 1.946-21.658 5.734-6.426 3.635-11.674 9.011-15.155 15.539-3.917 7.194-5.888 15.283-5.734 23.475-0.154 8.192 1.818 16.256 5.734 23.45 3.482 6.502 8.755 11.93 15.155 15.59 6.63 3.661 14.080 5.53 21.658 5.427 5.632 0.154 11.264-0.87 16.486-3.046s9.907-5.402 13.798-9.523z"></path>
<path fill="#fff" d="M494.566 69.555c10.829 10.47 16.256 26.010 16.256 46.643v81.485h-33.434v-77.261c0.742-10.163-2.406-20.198-8.832-28.134-3.251-3.251-7.194-5.786-11.52-7.398-4.326-1.638-8.934-2.304-13.542-2.022-5.35-0.256-10.701 0.563-15.693 2.483-5.018 1.894-9.574 4.813-13.389 8.55-7.629 8.806-11.469 20.275-10.701 31.898v71.885h-33.28v-142.234h31.718v18.33c5.606-6.605 12.774-11.725 20.838-14.925 9.011-3.558 18.611-5.325 28.288-5.248 7.91-0.358 15.821 0.87 23.245 3.61s14.234 6.938 20.045 12.339z"></path>
<path fill="#fff" d="M582.323 190.259c-11.418-5.939-20.941-14.95-27.494-26.010-6.656-11.418-10.061-24.448-9.83-37.658-0.256-13.21 3.174-26.214 9.83-37.606 6.579-10.957 16.051-19.891 27.366-25.83 12.365-6.4 26.163-9.6 40.090-9.318 12.826-0.307 25.549 2.611 36.966 8.525 10.368 5.427 18.714 14.029 23.885 24.499l-25.6 14.925c-3.738-6.195-9.011-11.29-15.334-14.797-8.243-4.198-17.562-5.76-26.701-4.48-9.165 1.28-17.69 5.376-24.422 11.674-4.173 4.275-7.424 9.344-9.523 14.925-2.125 5.581-3.072 11.52-2.79 17.485-0.282 5.939 0.64 11.853 2.739 17.408 2.074 5.581 5.274 10.65 9.395 14.925 6.784 6.374 15.386 10.496 24.627 11.776 9.216 1.28 18.611-0.307 26.906-4.557 6.323-3.507 11.597-8.627 15.334-14.797l25.6 14.899c-5.478 10.496-14.054 19.072-24.576 24.525-11.29 5.939-23.936 8.909-36.685 8.627-13.824 0.282-27.494-2.867-39.782-9.139z"></path>
<path fill="#fff" d="M736.896 190.259c-11.315-5.939-20.71-14.976-27.085-26.010-6.63-11.443-10.010-24.448-9.805-37.658-0.205-13.184 3.174-26.189 9.805-37.606 6.451-10.957 15.821-19.891 27.085-25.83 12.109-6.144 25.498-9.318 39.091-9.318s26.982 3.174 39.091 9.318c11.264 5.939 20.634 14.874 27.085 25.83 6.605 11.418 9.984 24.422 9.728 37.606 0.23 13.21-3.123 26.214-9.728 37.658-6.374 11.034-15.744 20.045-27.034 26.010-12.109 6.118-25.498 9.318-39.091 9.318-13.568 0-26.982-3.2-39.091-9.318h-0.051zM806.272 158.822c4.070-4.301 7.219-9.37 9.293-14.899 2.048-5.53 2.995-11.443 2.739-17.331 0.256-5.914-0.666-11.827-2.739-17.357-2.074-5.555-5.222-10.624-9.293-14.925-8.166-7.859-19.046-12.237-30.362-12.237-11.341 0-22.221 4.378-30.387 12.237-4.019 4.326-7.142 9.395-9.165 14.95-2.048 5.53-2.944 11.443-2.688 17.331-0.256 5.888 0.666 11.776 2.688 17.306 2.048 5.53 5.146 10.598 9.165 14.925 8.166 7.834 19.046 12.211 30.387 12.211 11.315 0 22.195-4.378 30.362-12.211z"></path>
<path fill="#fff" d="M252.8 53.606c8.73-0.102 17.382 1.536 25.472 4.813 7.68 3.149 14.566 7.962 20.147 14.106v-17.152h33.382v142.31h-31.898v-18.33c-5.427 6.682-12.442 11.904-20.429 15.206-8.499 3.405-17.613 5.12-26.778 5.018-12.954 0.256-25.728-2.765-37.171-8.806-10.829-5.965-19.763-14.874-25.702-25.702-6.4-11.725-9.626-24.909-9.395-38.246-0.256-13.312 2.995-26.445 9.395-38.118 5.965-10.803 14.874-19.686 25.702-25.6 11.418-6.298 24.243-9.574 37.274-9.498zM256.512 170.829c7.578 0.102 15.027-1.766 21.658-5.427 6.4-3.686 11.674-9.088 15.155-15.59 3.917-7.194 5.888-15.283 5.734-23.45 0.154-8.192-1.818-16.282-5.734-23.475-3.482-6.528-8.73-11.904-15.155-15.565-6.579-3.789-14.054-5.76-21.658-5.709-5.606-0.179-11.213 0.819-16.41 2.944-5.222 2.099-9.933 5.274-13.875 9.293-4.019 4.326-7.142 9.395-9.19 14.95-2.048 5.53-2.97 11.443-2.714 17.331-0.256 5.888 0.666 11.776 2.714 17.306 2.048 5.555 5.171 10.624 9.19 14.925 3.866 4.147 8.576 7.398 13.798 9.6 5.222 2.176 10.829 3.226 16.486 3.098v-0.23z"></path>
</svg>
