<!-- Generated by IcoMoon.io -->
<svg version="1.1" xmlns="http://www.w3.org/2000/svg" width="1792" height="1024" viewBox="0 0 1792 1024">
<title></title>
<g id="icomoon-ignore">
</g>
<path fill="#b3b3b3" d="M424.698 0.006h-372.954c-1.325-0.045-2.637 0.256-3.795 0.87-1.158 0.621-2.118 1.523-2.778 2.624-0.666 1.101-1.005 2.349-0.979 3.622 0.026 1.267 0.41 2.502 1.107 3.584l127.539 179.443c1.286 1.805 3.014 3.283 5.037 4.288 2.029 1.005 4.282 1.51 6.56 1.472h240.262c150.298 0 200.326 45.69 200.326 130.675 0 84.992-48.954 129.856-200.326 129.856h-48.954c-1.523-0.045-3.027 0.314-4.358 1.024-1.325 0.717-2.426 1.766-3.174 3.040-0.749 1.267-1.126 2.714-1.082 4.173 0.038 1.459 0.493 2.88 1.312 4.109l122.816 174.093c1.606 2.253 3.795 4.070 6.362 5.261 2.56 1.19 5.402 1.722 8.243 1.53 240.902-17.075 348.262-134.995 348.262-322.259 0-195.085-120.672-327.405-429.427-327.405z"></path>
<path fill="#b3b3b3" d="M1605.626 1003.213l-390.995-993.338c-1.171-2.906-3.232-5.408-5.914-7.168-2.682-1.766-5.862-2.707-9.114-2.707h-212.352c-3.232-0.019-6.387 0.922-9.037 2.688-2.656 1.773-4.672 4.282-5.779 7.187l-89.965 226.368c-1.709 5.363-1.709 11.098 0 16.461 32.211 139.322-15.674 294.483-135.699 361.773-9.875 5.376-17.472 13.894-21.472 24.077l-144.499 364.243c-0.851 2.317-1.12 4.794-0.774 7.232 0.346 2.432 1.293 4.755 2.765 6.765 1.472 2.016 3.418 3.661 5.69 4.806 2.266 1.146 4.787 1.754 7.347 1.779h200.115c3.315 0.026 6.56-0.928 9.286-2.733s4.806-4.371 5.958-7.354l96.621-244.883c1.171-2.912 3.232-5.414 5.914-7.174 2.688-1.766 5.862-2.707 9.114-2.707h341.824c3.251 0 6.432 0.941 9.114 2.707 2.682 1.76 4.749 4.262 5.92 7.174l96.621 244.883c1.101 2.912 3.123 5.421 5.773 7.187s5.811 2.707 9.037 2.694h200.333c2.426-0.141 4.794-0.806 6.912-1.958s3.93-2.752 5.299-4.678c1.37-1.933 2.259-4.134 2.598-6.445s0.122-4.666-0.64-6.88zM1173.837 562.413h-164.256c-2.374-0.019-4.71-0.589-6.81-1.658-2.099-1.075-3.898-2.611-5.248-4.486-1.344-1.882-2.202-4.038-2.496-6.298-0.294-2.266-0.013-4.557 0.813-6.694l81.805-207.642c1.12-2.931 3.149-5.459 5.818-7.245 2.669-1.792 5.85-2.752 9.107-2.752s6.432 0.96 9.101 2.752c2.669 1.786 4.704 4.314 5.818 7.245l81.376 205.792c0.947 2.336 1.28 4.858 0.973 7.347s-1.235 4.87-2.714 6.938c-1.485 2.067-3.469 3.757-5.779 4.928-2.317 1.165-4.89 1.779-7.507 1.773z"></path>
<path fill="#b3b3b3" d="M1775.469 0.006h-197.325c-4.211 0-8.256 1.606-11.232 4.461-2.982 2.854-4.653 6.726-4.653 10.765v774.586c0.109 9.267 1.85 18.451 5.152 27.162l67.846 172.243c2.477 4.941 3.597 10.406 3.258 15.878s-2.125 10.771-5.19 15.398c-0.224 0.339-0.358 0.73-0.378 1.133s0.077 0.806 0.275 1.165c0.192 0.358 0.486 0.653 0.845 0.87 0.358 0.211 0.774 0.326 1.19 0.333h140.64c4.269 0 8.365-1.626 11.386-4.518 3.021-2.899 4.717-6.822 4.717-10.918v-993.331c-0.026-2.042-0.48-4.064-1.325-5.939-0.851-1.875-2.080-3.571-3.616-4.986-1.542-1.421-3.36-2.528-5.344-3.264-1.99-0.742-4.115-1.094-6.246-1.037z"></path>
<path fill="#ff7a00" d="M15.462 20.589l438.656 622.298c0.723 1.018 1.133 2.202 1.19 3.424 0.051 1.222-0.25 2.438-0.87 3.507-0.627 1.069-1.549 1.952-2.669 2.547-1.12 0.589-2.387 0.87-3.667 0.813h-179.066c-2.106-0.051-4.198 0.294-6.163 1.018-1.965 0.73-3.757 1.824-5.274 3.226-1.523 1.395-2.733 3.066-3.571 4.922-0.838 1.85-1.286 3.84-1.312 5.856v340.787c-0.115 4.058-1.888 7.904-4.941 10.72-3.053 2.81-7.142 4.358-11.379 4.301h-219.648c-4.237 0.058-8.32-1.491-11.379-4.301-3.053-2.816-4.826-6.662-4.941-10.72v-983.456c-0.685-1.914-0.544-4 0.378-5.818 0.928-1.811 2.566-3.2 4.563-3.853 1.99-0.659 4.173-0.525 6.067 0.358 1.894 0.89 3.341 2.464 4.026 4.371z"></path>
</svg>
