<svg
    xmlns="http://www.w3.org/2000/svg"
    viewBox="0 0 105 84"
    id="vector">
    <path
        id="path"
        d="M 79.188 22.718 C 79.188 22.718 97.319 38.645 102.472 52.499 C 116.461 90.11 26.694 72.665 18.321 59.54 C 9.948 46.415 24.44 27.093 37 6.312 C 49.56 -14.469 79.188 22.718 79.188 22.718 Z"
        fill="#f5f6fa"
        stroke-width="1"/>
    <path
        id="path_1"
        d="M 34.991 45.887 L 34.178 45.767 C 12.759 42.654 10.096 19.582 10.072 19.351 L 9.97 18.338 L 25.197 5.24 L 44.713 9.939 L 45.082 10.885 C 45.153 11.106 53.318 32.845 35.663 45.409 L 34.991 45.887 Z"
        fill="#20c05d"
        stroke-width="1"/>
    <path
        id="path_2"
        d="M 37.978 32.408 L 26.19 35.257 C 25.533 35.409 24.843 35.297 24.27 34.945 C 23.697 34.593 23.288 34.03 23.131 33.378 L 21.381 26.118 C 21.23 25.465 21.345 24.777 21.701 24.206 C 22.056 23.635 22.623 23.226 23.279 23.067 L 35.067 20.217 C 35.724 20.065 36.414 20.178 36.987 20.529 C 37.56 20.881 37.969 21.444 38.126 22.096 L 39.882 29.355 C 40.031 30.009 39.915 30.697 39.559 31.268 C 39.202 31.84 38.635 32.249 37.978 32.408 Z M 23.742 25.096 C 23.628 25.125 23.531 25.197 23.469 25.296 C 23.408 25.396 23.388 25.515 23.413 25.628 L 25.164 32.889 C 25.193 33.001 25.265 33.098 25.365 33.159 C 25.464 33.22 25.584 33.239 25.698 33.214 L 37.486 30.364 C 37.543 30.35 37.597 30.325 37.644 30.29 C 37.691 30.255 37.731 30.212 37.762 30.162 C 37.792 30.112 37.812 30.056 37.821 29.999 C 37.83 29.941 37.827 29.882 37.813 29.826 L 36.07 22.569 C 36.056 22.512 36.031 22.459 35.996 22.412 C 35.961 22.365 35.918 22.326 35.868 22.296 C 35.817 22.266 35.762 22.246 35.704 22.237 C 35.646 22.229 35.587 22.232 35.53 22.246 L 23.742 25.096 Z"
        fill="#ffffff"
        stroke-width="1"/>
    <path
        id="path_3"
        d="M 34.043 22.476 C 33.771 22.541 33.484 22.497 33.245 22.351 C 33.007 22.207 32.835 21.973 32.77 21.703 L 31.953 18.295 C 31.708 17.434 31.138 16.702 30.361 16.253 C 29.585 15.803 28.663 15.67 27.788 15.882 C 26.913 16.094 26.153 16.634 25.668 17.39 C 25.182 18.145 25.009 19.057 25.184 19.935 L 26.006 23.341 C 26.041 23.476 26.049 23.618 26.029 23.757 C 26.009 23.896 25.961 24.029 25.889 24.149 C 25.816 24.27 25.72 24.375 25.607 24.458 C 25.493 24.541 25.364 24.601 25.227 24.634 C 25.09 24.668 24.948 24.673 24.809 24.651 C 24.67 24.629 24.537 24.579 24.417 24.505 C 24.298 24.431 24.195 24.334 24.114 24.22 C 24.032 24.106 23.975 23.976 23.945 23.839 L 23.128 20.432 C 22.9 19.045 23.207 17.622 23.988 16.448 C 24.769 15.274 25.966 14.436 27.339 14.102 C 28.712 13.767 30.16 13.961 31.391 14.645 C 32.623 15.329 33.548 16.452 33.98 17.789 L 34.797 21.197 C 34.867 21.465 34.827 21.751 34.685 21.991 C 34.544 22.23 34.313 22.405 34.043 22.476 Z"
        fill="#ffffff"
        stroke-width="1"/>
    <path
        id="path_4"
        d="M 100.563 50.58 C 100.251 52.401 98.5 53.625 96.66 53.31 L 60.761 47.146 C 58.922 46.831 57.679 45.093 57.992 43.272 L 61.285 24.093 C 61.598 22.272 63.349 21.047 65.188 21.363 L 101.087 27.526 C 102.927 27.842 104.169 29.58 103.856 31.401 L 100.563 50.58 Z"
        fill="#ff8700"
        stroke-width="1"/>
    <path
        id="path_5"
        d="M 81.946 32.849 C 81.705 32.916 81.374 33.031 80.99 32.914 C 80.659 32.813 80.508 32.642 80.57 32.282 L 80.846 30.67 L 82.266 30.914 L 82.45 29.845 L 81.03 29.601 L 81.329 27.856 L 80.09 28.252 L 79.432 32.078 C 79.252 33.129 79.725 33.824 80.796 34.008 C 81.236 34.083 81.618 34.052 82.238 33.87 L 82.26 33.863 L 81.974 32.84 L 81.946 32.849 Z M 89.057 30.877 C 88.604 30.8 87.942 30.744 87.441 30.823 L 87.422 30.825 L 86.725 34.889 L 87.862 35.084 L 88.408 31.905 C 88.545 31.906 88.68 31.913 88.957 31.96 C 89.234 32.008 89.394 32.071 89.56 32.156 L 89.583 32.169 L 90.105 31.184 L 90.078 31.172 C 89.745 31.035 89.495 30.952 89.057 30.877 Z M 84.417 33.194 L 86.487 32.601 C 86.727 31.199 86.166 30.381 84.875 30.16 C 83.585 29.938 82.775 30.562 82.535 31.964 L 82.518 32.063 C 82.274 33.485 82.884 34.332 84.331 34.58 C 84.949 34.687 85.559 34.709 86.048 34.645 L 86.075 34.64 L 85.916 33.567 L 85.89 33.57 C 85.599 33.608 85.062 33.606 84.515 33.512 C 83.911 33.408 83.555 33.052 83.699 32.215 C 83.844 31.363 84.186 31.176 84.692 31.229 C 85.146 31.276 85.461 31.505 85.403 31.778 L 84.086 32.186 L 84.417 33.194 Z M 77.275 28.855 C 76.581 28.736 75.814 28.693 75.368 28.75 L 75.349 28.752 L 74.65 32.817 L 75.789 33.012 L 76.334 29.833 C 76.547 29.839 76.698 29.856 77.008 29.909 C 77.569 30.006 77.803 30.282 77.722 30.755 L 77.29 33.27 L 78.42 33.464 L 78.838 31.031 C 79.037 29.871 78.453 29.057 77.275 28.855 Z M 72.464 32.441 L 73.602 32.636 L 74.321 28.45 L 73.183 28.254 L 72.464 32.441 Z"
        fill="#ffffff"
        stroke-width="1"/>
    <path
        id="path_6"
        d="M 65.395 35.154 L 63.112 34.762 C 62.9 34.725 62.699 34.866 62.663 35.076 L 62.275 37.336 C 62.239 37.545 62.382 37.745 62.593 37.781 L 64.876 38.174 C 65.088 38.21 65.289 38.069 65.325 37.859 L 65.713 35.6 C 65.749 35.39 65.607 35.19 65.395 35.154 Z"
        fill="#f1f1f1"
        stroke-width="1"/>
    <path
        id="path_7"
        d="M 93.584 49.704 C 93.071 49.989 92.456 50.107 91.828 49.999 C 90.365 49.748 89.38 48.369 89.628 46.921 C 89.877 45.472 91.265 44.501 92.728 44.753 C 93.316 44.854 93.828 45.136 94.21 45.533 C 93.522 45.908 93.008 46.578 92.866 47.406 C 92.717 48.273 93.011 49.115 93.584 49.704 Z"
        fill="#ff0000"
        stroke-width="1"/>
    <path
        id="path_8"
        d="M 94.93 47.831 C 94.788 48.658 94.274 49.329 93.586 49.704 C 93.013 49.115 92.719 48.273 92.868 47.406 C 93.01 46.578 93.524 45.908 94.212 45.533 C 94.785 46.122 95.079 46.964 94.93 47.831 Z"
        fill="#ff692e"
        stroke-width="1"/>
    <path
        id="path_9"
        d="M 98.166 48.316 C 97.917 49.764 96.528 50.735 95.066 50.485 C 94.477 50.383 93.966 50.101 93.584 49.704 C 94.272 49.329 94.786 48.659 94.928 47.831 C 95.077 46.964 94.782 46.122 94.21 45.533 C 94.724 45.248 95.338 45.13 95.966 45.238 C 97.429 45.489 98.414 46.867 98.166 48.316 Z"
        fill="#ffe100"
        stroke-width="1"/>
    <path
        id="path_10"
        d="M 60.911 84 C 64.275 84 67.003 81.272 67.003 77.908 C 67.003 74.543 64.275 71.816 60.911 71.816 C 57.546 71.816 54.819 74.543 54.819 77.908 C 54.819 81.272 57.546 84 60.911 84 Z M 27.734 84 C 31.099 84 33.826 81.272 33.826 77.908 C 33.826 74.543 31.099 71.816 27.734 71.816 C 24.37 71.816 21.642 74.543 21.642 77.908 C 21.642 81.272 24.37 84 27.734 84 Z"
        fill="#b3b3b3"
        stroke-width="1"/>
    <path
        id="path_11"
        d="M 74.248 69.721 L 74.248 72.756 C 74.076 74.4 73.299 75.922 72.069 77.026 C 70.839 78.13 69.243 78.737 67.59 78.731 L 6.669 78.731 C 4.91 78.725 3.223 78.027 1.975 76.786 C 0.726 75.546 0.017 73.864 0 72.104 L 0 66.151 C 0.001 65.131 0.178 64.119 0.524 63.159 C 0.834 62.3 1.277 61.496 1.838 60.775 L 5.9 55.495 L 6.541 54.662 C 7.187 53.944 7.976 53.37 8.858 52.978 C 9.74 52.586 10.695 52.384 11.66 52.385 L 48.362 52.385 C 52.199 52.385 55.138 55.357 55.267 55.474 L 62.748 62.956 C 62.876 63.073 62.748 63.127 62.93 63.127 L 65.196 63.127 C 66.512 63.12 67.829 63.18 69.139 63.308 C 70.513 63.629 71.749 64.379 72.667 65.449 C 73.586 66.52 74.14 67.855 74.248 69.261 C 74.238 69.432 74.248 69.582 74.248 69.721 Z"
        fill="#ff8700"
        stroke-width="1"/>
    <path
        id="path_12"
        d="M 62.972 63.159 L 42.933 63.159 C 42.905 63.169 42.875 63.169 42.847 63.159 L 35.366 55.677 C 35.343 55.662 35.326 55.64 35.318 55.614 C 35.31 55.589 35.311 55.561 35.321 55.536 C 35.331 55.511 35.35 55.49 35.373 55.477 C 35.397 55.463 35.424 55.459 35.451 55.464 L 55.266 55.464 L 62.972 63.159 Z"
        fill="#ffba8c"
        stroke-width="1"/>
    <path
        id="path_13"
        d="M 11.671 84 C 15.036 84 17.763 81.272 17.763 77.908 C 17.763 74.543 15.036 71.816 11.671 71.816 C 8.307 71.816 5.579 74.543 5.579 77.908 C 5.579 81.272 8.307 84 11.671 84 Z"
        fill="#b3b3b3"
        stroke-width="1"/>
    <path
        id="path_14"
        d="M 11.671 81.777 C 13.807 81.777 15.54 80.045 15.54 77.908 C 15.54 75.771 13.807 74.039 11.671 74.039 C 9.534 74.039 7.802 75.771 7.802 77.908 C 7.802 80.045 9.534 81.777 11.671 81.777 Z"
        fill="#ffffff"
        stroke-width="1"/>
    <path
        id="path_15"
        d="M 45.008 84 C 48.372 84 51.1 81.272 51.1 77.908 C 51.1 74.543 48.372 71.816 45.008 71.816 C 41.643 71.816 38.916 74.543 38.916 77.908 C 38.916 81.272 41.643 84 45.008 84 Z"
        fill="#b3b3b3"
        stroke-width="1"/>
    <path
        id="path_16"
        d="M 8.551 55.474 L 5.932 55.474 L 1.871 60.754 C 1.31 61.474 0.866 62.279 0.556 63.137 L 15.819 63.137 C 15.846 63.139 15.874 63.135 15.9 63.125 C 15.925 63.116 15.949 63.101 15.969 63.082 C 15.989 63.063 16.005 63.04 16.016 63.015 C 16.027 62.989 16.032 62.962 16.032 62.934 L 16.032 55.667 C 16.032 55.61 16.01 55.556 15.97 55.515 C 15.93 55.475 15.875 55.453 15.819 55.453 L 8.551 55.474 Z M 39.631 62.945 L 32.256 55.57 C 32.191 55.513 32.108 55.479 32.021 55.474 L 18.447 55.474 C 18.391 55.474 18.336 55.497 18.296 55.537 C 18.256 55.577 18.234 55.631 18.234 55.688 L 18.234 62.945 C 18.234 63.002 18.256 63.056 18.296 63.096 C 18.336 63.136 18.391 63.159 18.447 63.159 L 39.545 63.159 C 39.569 63.157 39.592 63.148 39.611 63.134 C 39.631 63.12 39.646 63.101 39.654 63.078 C 39.663 63.056 39.666 63.032 39.662 63.008 C 39.657 62.985 39.647 62.963 39.631 62.945 Z"
        fill="#ffba8c"
        stroke-width="1"/>
    <path
        id="path_17"
        d="M 45.006 81.777 C 47.143 81.777 48.875 80.045 48.875 77.908 C 48.875 75.771 47.143 74.039 45.006 74.039 C 42.869 74.039 41.137 75.771 41.137 77.908 C 41.137 80.045 42.869 81.777 45.006 81.777 Z"
        fill="#ffffff"
        stroke-width="1"/>
    <path
        id="path_18"
        d="M 19.72 66.066 L 25.128 66.066"
        fill="none"
        stroke="#ffffba8c"
        stroke-width="0.910256"/>
    <path
        id="path_19"
        d="M 74.228 69.294 L 70.327 69.294 C 69.934 69.248 69.571 69.06 69.307 68.764 C 69.044 68.468 68.898 68.086 68.898 67.69 C 68.898 67.295 69.044 66.912 69.307 66.617 C 69.571 66.321 69.934 66.133 70.327 66.087 L 73.095 66.087 C 73.746 67.039 74.136 68.144 74.228 69.294 Z M 58.28 66.066 L 54.069 66.066 C 53.178 66.066 52.456 66.788 52.456 67.68 C 52.456 68.571 53.178 69.294 54.069 69.294 L 58.28 69.294 C 59.172 69.294 59.894 68.571 59.894 67.68 C 59.894 66.788 59.172 66.066 58.28 66.066 Z"
        fill="#f4f5f9"
        stroke-width="1"/>
</svg>
