<!-- Generated by IcoMoon.io -->
<svg version="1.1" xmlns="http://www.w3.org/2000/svg" width="1132" height="1024" viewBox="0 0 1132 1024">
<title></title>
<g id="icomoon-ignore">
</g>
<path fill="#ffb913" d="M936.197 10.895v302.843c0 6.535-4.395 10.892-10.986 10.892h-353.822c-6.594 0-10.989-4.357-10.989-10.892v-302.843c0-6.537 4.395-10.895 10.989-10.895h353.822c6.591 0 10.986 4.357 10.986 10.895z"></path>
<path fill="#ffba8c" d="M999.931 568.649l-569.19 84.97c-6.594 0-10.989-4.357-10.989-8.715v-331.167c0-4.357 4.395-10.895 10.989-10.895h569.19c4.395 0 10.989 4.357 10.989 10.895v244.017c-4.398 4.357-6.594 8.715-10.989 10.895z"></path>
<path fill="#ff8700" d="M1105.419 135.082h-832.911l-19.779-76.256c-2.196-10.895-13.185-19.61-24.172-17.432h-186.802c-13.185 0-24.174 10.895-24.174 23.967s10.989 21.787 24.174 21.787h171.418l19.779 74.078 92.3 485.856-43.954 132.902c-4.395 13.072 2.199 26.144 15.384 30.502 2.199 0 4.395 2.177 6.594 2.177 8.79 0 19.779-6.535 21.976-15.25l41.755-124.187 745.003-93.685c10.989-2.18 19.779-10.895 19.779-23.967v-398.705c-2.196-13.072-13.185-21.787-26.371-21.787zM281.298 180.833h186.802l10.989 111.115-175.813 4.357-21.978-115.472zM312.067 344.239l171.418-4.357 10.986 106.757-160.428 15.25-21.976-117.65zM367.007 625.292l-21.976-117.65 156.033-13.072 10.989 111.115v2.177l-145.047 17.43zM514.25 180.833h186.799c0 0 0 0 0 2.18l6.594 104.577-180.208 4.357-13.185-111.115zM531.831 337.702l178.012-4.357 6.591 93.685-173.614 15.252-10.989-104.58zM560.4 601.328c0-2.18 0-2.18 0 0l-10.986-111.115 171.415-15.252 6.594 106.757-167.022 19.61zM747.202 180.833h164.824v98.043l-158.232 4.357-6.591-102.4zM758.188 331.164l156.033-4.357v82.793l-151.638 13.072-4.395-91.508zM771.377 573.003l-6.594-104.577 147.243-13.072v100.22l-140.649 17.43zM1083.441 533.787l-123.069 15.252v-98.043l123.069-10.895v93.685zM1083.441 394.348l-123.069 10.895v-78.436l123.069-4.357v71.898zM1083.441 274.518l-123.069 4.357v-98.043h123.069v93.685z"></path>
<path fill="#ff8700" d="M1006.525 760.371v45.754c0 6.537-4.395 10.895-10.989 10.895h-707.643c-6.594 0-10.989-4.357-10.989-10.895v-45.754c0-6.535 4.395-10.892 10.989-10.892h707.643c6.594-2.18 10.989 4.357 10.989 10.892zM145.044 23.964h-101.090c-24.174 0-43.954 19.607-43.954 43.574s19.779 43.574 43.954 43.574h101.090c24.174 0 43.954-19.607 43.954-43.574s-19.779-43.574-43.954-43.574z"></path>
<path fill="#ff8700" d="M914.222 773.446v163.406c0 6.535-4.395 10.892-10.986 10.892h-46.153c-6.591 0-10.986-4.357-10.986-10.892v-163.406c0-6.535 4.395-10.892 10.986-10.892h43.954c6.594-2.18 13.185 4.357 13.185 10.892zM452.716 760.374h-46.15c-6.594 0-10.989 4.357-10.989 10.895v165.583c0 6.535 4.395 10.892 10.989 10.892h46.15c6.594 0 10.989-4.357 10.989-10.892v-163.406c2.196-6.535-4.395-13.072-10.989-13.072z"></path>
<path fill="#b3b3b3" d="M960.372 941.21c0 45.754-37.36 82.79-83.51 82.79s-83.51-37.036-83.51-82.79c0-45.754 37.36-82.793 83.51-82.793s83.51 37.039 83.51 82.793zM430.74 858.417c-46.153 0-83.513 37.039-83.513 82.793s37.36 82.79 83.513 82.79c46.15 0 83.51-37.036 83.51-82.79-2.199-45.754-39.559-82.793-83.51-82.793z"></path>
<path fill="#fff" d="M925.211 941.207c0 26.147-21.976 45.754-46.15 45.754s-46.153-21.787-46.153-45.754c0-23.964 21.978-45.751 46.153-45.751 24.174-2.18 46.15 19.607 46.15 45.751zM430.74 893.276c-26.373 0-46.15 21.787-46.15 45.754s21.976 45.754 46.15 45.754c24.174 0 46.15-21.787 46.15-45.754s-19.779-45.754-46.15-45.754z"></path>
</svg>
